<svg xmlns="http://www.w3.org/2000/svg" xmlns:xlink="http://www.w3.org/1999/xlink" width="1000" zoomAndPan="magnify" viewBox="0 0 750 749.999995" height="1000" preserveAspectRatio="xMidYMid meet" version="1.0"><defs><g/><clipPath id="b1179e289e"><rect x="0" width="750" y="0" height="738"/></clipPath></defs><g transform="matrix(1, 0, 0, 1, 0, -0.000000000000042435)"><g clip-path="url(#b1179e289e)"><path fill="#fe6541" d="M 374.90625 83.804688 C 379.851562 76.375 389.953125 64.851562 397.03125 59.535156 C 402.609375 55.339844 409.8125 53.578125 416.65625 54.769531 C 432.421875 57.503906 453.046875 81.269531 461.777344 93.695312 C 479.734375 119.226562 490.664062 153.65625 491.414062 184.800781 C 491.566406 191.003906 492.113281 197.867188 491.082031 203.972656 C 508.425781 192.277344 538.683594 188.734375 559.078125 188.5625 C 582.894531 188.359375 603.878906 191.867188 626.09375 200.546875 C 639.390625 205.742188 659.636719 212.0625 662.882812 228.257812 C 665.402344 240.808594 653.738281 262.875 647.042969 273.234375 C 661.890625 277.835938 686.679688 286.734375 688.371094 304.457031 C 689.972656 321.25 672.847656 346.359375 663.019531 359.152344 C 640.890625 387.953125 600.28125 415.199219 564.074219 419.636719 C 568.570312 424.4375 572.507812 428.476562 576.449219 433.886719 C 583.644531 443.765625 588.234375 452.90625 593.019531 464.058594 C 606.855469 496.316406 608.578125 528.488281 603.839844 562.921875 C 602.640625 571.667969 599.128906 579.367188 591.84375 584.699219 C 582.921875 591.230469 572.425781 589.253906 562.238281 587.539062 L 545.839844 584.722656 C 544.1875 597.308594 545.703125 615.152344 537.167969 625.210938 C 527.707031 636.363281 511.46875 633.789062 498.605469 631.9375 C 465.015625 626.980469 433.546875 612.5 407.929688 590.21875 C 391.214844 574.3125 386.183594 568.09375 374.910156 548.613281 C 369.164062 559.097656 362.261719 568.902344 354.339844 577.851562 C 326.125 609.929688 280.992188 630.71875 238.46875 633.378906 C 228.644531 634.011719 221.046875 633.585938 213.484375 626.707031 C 206.097656 619.992188 205.246094 613.449219 204.59375 603.914062 C 204.164062 597.617188 203.902344 591.242188 203.519531 584.945312 C 193.4375 587.324219 183.15625 588.640625 172.824219 589.09375 C 157.71875 589.75 147.292969 578.109375 145.21875 563.792969 C 141.480469 537.992188 141.203125 510.699219 148.226562 485.382812 C 154.875 461.488281 167.472656 437.1875 185.027344 419.601562 C 171.769531 417.765625 154.707031 411.144531 142.996094 404.957031 C 115.648438 390.40625 94.496094 370.0625 77.660156 344.308594 C 52.042969 305.117188 56.164062 286.359375 102.703125 272.78125 C 87.402344 246.484375 74.484375 223.441406 109.609375 206.234375 C 156.011719 183.503906 211.609375 182.175781 259.335938 203.398438 C 258.519531 199.222656 258.894531 188.582031 259.078125 184.203125 C 260.152344 153.003906 269.664062 122.679688 286.597656 96.453125 C 295.882812 82.046875 315.816406 58.425781 332.894531 54.742188 C 344.105469 53.050781 351.226562 57.046875 358.824219 64.726562 C 364.679688 70.644531 369.757812 77.285156 374.90625 83.804688 Z M 374.90625 83.804688 " fill-opacity="1" fill-rule="nonzero"/><path fill="#6a110a" d="M 335.851562 63.542969 C 336.894531 63.441406 337.945312 63.421875 338.992188 63.484375 C 350.617188 64.125 366.777344 89.085938 375.046875 98.410156 C 383.597656 88.914062 399.898438 61.117188 414.324219 63.675781 C 427.359375 65.992188 446.566406 87.949219 454.148438 98.835938 C 474.421875 127.949219 483.839844 164.816406 482.203125 200.113281 C 481.910156 206.398438 480.597656 214.359375 479.542969 220.605469 C 486.738281 216.984375 494.882812 211.550781 502.066406 208.601562 C 543.394531 191.632812 586.382812 194.996094 627.417969 210.894531 C 663.746094 224.972656 657.257812 233.679688 641.210938 264.855469 C 639.136719 268.902344 635.71875 273.558594 634.078125 277.597656 L 633.886719 278.078125 C 638.613281 280.027344 643.230469 281.460938 648.09375 283.273438 C 657.785156 286.886719 675.722656 292.75 678.789062 303.789062 C 680.699219 310.675781 676.496094 319.140625 673.566406 325.0625 C 666.046875 340.273438 655.898438 354.425781 644.25 366.738281 C 622.046875 388.394531 591.480469 407.230469 560.257812 410.945312 C 554.105469 411.675781 549.777344 411.050781 543.390625 412.828125 C 549.6875 420.253906 558.429688 425.914062 564.910156 434.070312 C 591.066406 467.039062 600.171875 509.140625 595.867188 550.386719 C 593.257812 575.410156 589.914062 583.585938 562.898438 578.355469 C 555.824219 576.988281 544.703125 574.53125 537.777344 573.726562 L 537.253906 573.667969 C 535.8125 584.480469 536.835938 612.71875 529.390625 619.867188 C 525.628906 623.480469 520.761719 624.546875 515.710938 624.492188 C 510.351562 624.433594 504.984375 623.53125 499.6875 622.777344 C 463.660156 617.53125 430.371094 600.542969 404.984375 574.457031 C 390.402344 559.664062 383.808594 546.105469 374.886719 527.871094 C 372.589844 530.9375 368.964844 540.203125 366.8125 544.144531 C 361.300781 554.253906 353.601562 565.207031 345.773438 573.609375 C 320.222656 600.878906 284.300781 618.558594 247.304688 623.167969 C 237.742188 624.195312 226.941406 627.050781 219.191406 619.457031 C 211.921875 612.335938 214.230469 598.804688 213.054688 589.339844 C 212.476562 584.6875 212.105469 578.925781 211.96875 574.257812 C 207.21875 574.449219 201.734375 576.164062 197.132812 576.894531 C 174.855469 580.429688 156.535156 586.769531 153.570312 556.894531 C 152.164062 542.734375 151.226562 530.671875 152.257812 516.457031 C 154.496094 484.859375 166.785156 454.804688 187.335938 430.695312 C 192.332031 424.9375 200.035156 417.769531 205.914062 412.695312 C 200.136719 412.113281 191.152344 411.484375 185.675781 410.457031 C 158.519531 405.355469 133.75 391.355469 113.472656 372.894531 C 107.277344 367.179688 101.503906 361.015625 96.207031 354.460938 C 87.496094 343.628906 72.082031 320.828125 71.113281 306.953125 C 70.082031 292.125 95.84375 284.339844 106.929688 281.007812 C 109.046875 280.371094 114.394531 278.824219 115.871094 277.289062 C 115.988281 275.125 111.078125 268.769531 109.78125 266.488281 C 91.992188 235.222656 87.632812 224.1875 124.925781 209.347656 C 164.628906 193.550781 206.617188 193.753906 246.867188 208.136719 C 251.433594 209.769531 255.742188 211.777344 259.96875 214.132812 C 263.648438 216.152344 267.398438 219.054688 271.308594 220.507812 C 270.890625 218.6875 270.503906 216.863281 270.148438 215.035156 C 263.019531 177.382812 274.078125 130.804688 295.832031 99.347656 C 303.945312 87.613281 321.566406 66.207031 335.851562 63.542969 Z M 335.851562 63.542969 " fill-opacity="1" fill-rule="nonzero"/><path fill="#fec9ca" d="M 337.890625 78.375 C 342.457031 80.167969 358.738281 103.046875 363.050781 108.167969 C 366.039062 111.71875 371.453125 125.191406 379.078125 118.058594 C 382.386719 114.960938 386.015625 108.445312 389.007812 104.652344 C 396.421875 95.246094 403.777344 86.28125 412.640625 78.191406 C 419.707031 82.144531 427.058594 91.183594 432.453125 97.367188 C 450.851562 118.457031 462.695312 144.167969 466.496094 171.953125 C 470.445312 199.503906 464.285156 227.550781 449.152344 250.910156 C 444.375 258.402344 437.890625 267.15625 432.144531 273.976562 C 424.335938 283.25 433.332031 290.03125 440.070312 284.007812 C 443.558594 280.890625 448.675781 273.414062 451.9375 269.378906 C 458.917969 260.605469 466.585938 252.398438 474.863281 244.839844 C 489.328125 231.828125 507.101562 220.660156 526.15625 216.246094 C 562.71875 207.777344 607.425781 214.070312 639.507812 233.578125 C 636.585938 244.726562 629.273438 256.613281 623.292969 266.414062 C 620.386719 271.175781 612.101562 278.996094 613.546875 284.601562 C 613.976562 286.1875 615.039062 287.523438 616.484375 288.296875 C 617.679688 288.941406 626.3125 291 628.585938 291.824219 C 639.78125 295.902344 654.117188 300.484375 664.238281 306.707031 C 663.34375 310.492188 661.917969 314.066406 660.328125 317.609375 C 651.355469 337.65625 636.363281 354.714844 619.28125 368.304688 C 572.40625 405.589844 534.828125 402.683594 480.886719 385.832031 C 477.113281 384.652344 469.824219 381.5 466.054688 383.140625 C 464.371094 383.875 462.914062 385.6875 462.378906 387.417969 C 461.984375 388.675781 462.128906 389.902344 462.773438 391.050781 C 465.535156 395.96875 479.246094 398.097656 484.714844 399.855469 C 521.074219 411.5625 550.089844 433.523438 567.890625 467.683594 C 580.636719 492.140625 583.53125 518.324219 581.546875 545.46875 C 581.148438 550.929688 581.136719 557.664062 579.378906 562.855469 C 579.132812 563.585938 578.703125 564.683594 577.960938 565.039062 C 574.429688 566.726562 549.589844 560.878906 544.472656 559.496094 C 539.953125 558.277344 535.335938 556.339844 530.738281 555.59375 C 529.03125 555.316406 526.445312 555.039062 524.882812 555.988281 C 523.140625 557.046875 522.386719 560.007812 522.078125 561.863281 C 521.429688 565.777344 521.851562 570.183594 521.792969 574.175781 C 521.707031 580.566406 521.007812 602.804688 519.1875 607.746094 C 518.953125 608.390625 518.472656 609.28125 517.800781 609.53125 C 515.46875 610.386719 511.046875 609.433594 508.523438 609.148438 C 489.203125 607.113281 470.457031 601.359375 453.328125 592.199219 C 428.21875 578.839844 406.402344 557.621094 393.710938 531.980469 C 390.394531 525.273438 388.480469 519.210938 386.3125 512.144531 C 382.609375 497.996094 381.238281 485.683594 381.128906 470.980469 C 381.058594 464.433594 381.460938 457.851562 381.199219 451.3125 C 381.046875 447.550781 378.585938 445.292969 374.847656 445.339844 C 370.394531 445.398438 368.742188 448.8125 368.65625 452.832031 C 368.574219 456.5625 368.816406 460.300781 368.8125 464.03125 C 368.753906 471.003906 368.433594 477.972656 367.84375 484.925781 C 365.0625 515.746094 355.347656 540.011719 334.226562 563.230469 C 308.433594 591.589844 272.234375 607.316406 234.167969 609.882812 C 232.71875 609.980469 231.316406 609.96875 230.21875 608.949219 C 226.933594 602.800781 227.457031 570.800781 227.222656 562.84375 C 227.101562 558.65625 225.53125 554.042969 220.128906 555.558594 C 203.546875 560.214844 187.53125 564.710938 170.210938 565.585938 C 168.152344 558.164062 167.894531 551.714844 167.261719 544.191406 C 165.019531 517.515625 168.789062 491.785156 180.8125 467.609375 C 196.132812 436.511719 223.738281 415.28125 255.824219 403.390625 C 264.324219 400.242188 272.800781 397.546875 281.570312 395.203125 C 285.710938 394.097656 288.804688 390.832031 286.96875 386.40625 C 286.582031 385.480469 285.949219 384.683594 285.144531 384.09375 C 282.960938 382.496094 280.640625 382.386719 278.101562 383.144531 C 269.328125 385.761719 260.34375 388.53125 251.570312 391.140625 C 227.886719 398.1875 193.519531 400.773438 170.058594 391.535156 C 142.253906 380.582031 113.269531 355.183594 97.34375 329.867188 C 93.074219 323.082031 89.28125 314.253906 85.964844 306.824219 C 93.597656 299.523438 111.636719 295.289062 121.792969 291.726562 C 127.386719 289.765625 141.179688 289.464844 136.425781 279.90625 C 134.410156 275.851562 130.582031 271.988281 128.128906 268.101562 C 121.339844 257.351562 115.480469 246.664062 111.195312 234.683594 C 114.902344 230.929688 120.957031 227.796875 125.65625 225.53125 C 149.785156 213.890625 176.292969 210.8125 202.792969 213.160156 C 215.769531 214.308594 228.867188 216.59375 241.027344 221.542969 C 253.175781 226.484375 264 234.089844 273.609375 242.871094 C 286.675781 254.816406 296.941406 268.648438 307.730469 282.523438 C 310.34375 285.882812 314.847656 287.707031 318.753906 285.351562 C 321.34375 283.785156 321.648438 280.339844 320.394531 277.730469 C 318.1875 273.539062 314.640625 270.148438 311.871094 266.332031 C 288.058594 235.898438 277.464844 200.929688 285.683594 162.394531 C 292.484375 130.5 309.976562 97.003906 337.890625 78.375 Z M 337.890625 78.375 " fill-opacity="1" fill-rule="nonzero"/><path fill="#fe6541" d="M 349.210938 369.953125 C 357.332031 368.148438 365.378906 373.261719 367.199219 381.378906 C 369.015625 389.496094 363.917969 397.554688 355.804688 399.382812 C 347.667969 401.222656 339.589844 396.109375 337.765625 387.972656 C 335.945312 379.835938 341.070312 371.761719 349.210938 369.953125 Z M 349.210938 369.953125 " fill-opacity="1" fill-rule="nonzero"/><path fill="#fe6541" d="M 393.582031 370.050781 C 401.652344 368.132812 409.746094 373.128906 411.644531 381.207031 C 413.546875 389.28125 408.527344 397.367188 400.449219 399.246094 C 392.390625 401.121094 384.34375 396.121094 382.453125 388.074219 C 380.558594 380.027344 385.539062 371.964844 393.582031 370.050781 Z M 393.582031 370.050781 " fill-opacity="1" fill-rule="nonzero"/><path fill="#fe6541" d="M 371.738281 292.640625 C 379.738281 290.542969 387.929688 295.339844 390.019531 303.347656 C 392.105469 311.355469 387.296875 319.535156 379.285156 321.613281 C 371.292969 323.683594 363.132812 318.886719 361.046875 310.894531 C 358.964844 302.90625 363.75 294.738281 371.738281 292.640625 Z M 371.738281 292.640625 " fill-opacity="1" fill-rule="nonzero"/><path fill="#fe6541" d="M 333.789062 325.152344 C 339.082031 324.433594 344.351562 326.609375 347.589844 330.859375 C 350.828125 335.105469 351.535156 340.765625 349.4375 345.675781 C 347.34375 350.589844 342.769531 353.996094 337.464844 354.601562 C 329.382812 355.519531 322.070312 349.761719 321.0625 341.695312 C 320.054688 333.625 325.730469 326.246094 333.789062 325.152344 Z M 333.789062 325.152344 " fill-opacity="1" fill-rule="nonzero"/><path fill="#fe6541" d="M 410.949219 325.433594 C 419.03125 323.914062 426.804688 329.277344 428.265625 337.375 C 429.71875 345.46875 424.304688 353.207031 416.199219 354.601562 C 408.171875 355.984375 400.535156 350.636719 399.09375 342.621094 C 397.648438 334.609375 402.945312 326.933594 410.949219 325.433594 Z M 410.949219 325.433594 " fill-opacity="1" fill-rule="nonzero"/><g fill="#6a110a" fill-opacity="1"><g transform="translate(221.959473, 709.700553)"><g><path d="M 23.84375 0.5625 C 20.15625 0.5625 16.859375 -0.0859375 13.953125 -1.390625 C 11.046875 -2.703125 8.765625 -4.515625 7.109375 -6.828125 C 5.460938 -9.148438 4.613281 -11.832031 4.5625 -14.875 L 12.3125 -14.875 C 12.582031 -12.257812 13.664062 -10.054688 15.5625 -8.265625 C 17.457031 -6.484375 20.21875 -5.59375 23.84375 -5.59375 C 27.3125 -5.59375 30.046875 -6.457031 32.046875 -8.1875 C 34.046875 -9.925781 35.046875 -12.15625 35.046875 -14.875 C 35.046875 -17.007812 34.457031 -18.742188 33.28125 -20.078125 C 32.101562 -21.410156 30.632812 -22.421875 28.875 -23.109375 C 27.113281 -23.804688 24.742188 -24.554688 21.765625 -25.359375 C 18.078125 -26.316406 15.125 -27.273438 12.90625 -28.234375 C 10.695312 -29.203125 8.804688 -30.710938 7.234375 -32.765625 C 5.660156 -34.816406 4.875 -37.578125 4.875 -41.046875 C 4.875 -44.078125 5.644531 -46.765625 7.1875 -49.109375 C 8.738281 -51.460938 10.914062 -53.28125 13.71875 -54.5625 C 16.519531 -55.84375 19.734375 -56.484375 23.359375 -56.484375 C 28.585938 -56.484375 32.867188 -55.175781 36.203125 -52.5625 C 39.535156 -49.945312 41.414062 -46.476562 41.84375 -42.15625 L 33.84375 -42.15625 C 33.570312 -44.289062 32.445312 -46.171875 30.46875 -47.796875 C 28.5 -49.421875 25.890625 -50.234375 22.640625 -50.234375 C 19.597656 -50.234375 17.113281 -49.445312 15.1875 -47.875 C 13.269531 -46.300781 12.3125 -44.101562 12.3125 -41.28125 C 12.3125 -39.25 12.882812 -37.59375 14.03125 -36.3125 C 15.1875 -35.039062 16.601562 -34.070312 18.28125 -33.40625 C 19.957031 -32.738281 22.316406 -31.976562 25.359375 -31.125 C 29.035156 -30.101562 31.992188 -29.097656 34.234375 -28.109375 C 36.472656 -27.128906 38.394531 -25.613281 40 -23.5625 C 41.601562 -21.507812 42.40625 -18.722656 42.40625 -15.203125 C 42.40625 -12.484375 41.679688 -9.921875 40.234375 -7.515625 C 38.796875 -5.117188 36.660156 -3.171875 33.828125 -1.671875 C 31.003906 -0.179688 27.675781 0.5625 23.84375 0.5625 Z M 23.84375 0.5625 "/></g></g></g><g fill="#6a110a" fill-opacity="1"><g transform="translate(268.918322, 709.700553)"><g><path d="M 3.4375 -22.078125 C 3.4375 -26.554688 4.34375 -30.488281 6.15625 -33.875 C 7.96875 -37.257812 10.460938 -39.882812 13.640625 -41.75 C 16.816406 -43.625 20.347656 -44.5625 24.234375 -44.5625 C 28.078125 -44.5625 31.410156 -43.734375 34.234375 -42.078125 C 37.066406 -40.421875 39.175781 -38.34375 40.5625 -35.84375 L 40.5625 -43.84375 L 47.921875 -43.84375 L 47.921875 0 L 40.5625 0 L 40.5625 -8.15625 C 39.125 -5.59375 36.976562 -3.472656 34.125 -1.796875 C 31.269531 -0.117188 27.945312 0.71875 24.15625 0.71875 C 20.257812 0.71875 16.738281 -0.238281 13.59375 -2.15625 C 10.445312 -4.082031 7.96875 -6.773438 6.15625 -10.234375 C 4.34375 -13.703125 3.4375 -17.648438 3.4375 -22.078125 Z M 40.5625 -22 C 40.5625 -25.300781 39.894531 -28.175781 38.5625 -30.625 C 37.226562 -33.082031 35.425781 -34.960938 33.15625 -36.265625 C 30.894531 -37.578125 28.40625 -38.234375 25.6875 -38.234375 C 22.957031 -38.234375 20.472656 -37.59375 18.234375 -36.3125 C 15.992188 -35.039062 14.207031 -33.175781 12.875 -30.71875 C 11.539062 -28.269531 10.875 -25.390625 10.875 -22.078125 C 10.875 -18.722656 11.539062 -15.800781 12.875 -13.3125 C 14.207031 -10.832031 15.992188 -8.941406 18.234375 -7.640625 C 20.472656 -6.335938 22.957031 -5.6875 25.6875 -5.6875 C 28.40625 -5.6875 30.894531 -6.335938 33.15625 -7.640625 C 35.425781 -8.941406 37.226562 -10.832031 38.5625 -13.3125 C 39.894531 -15.800781 40.5625 -18.695312 40.5625 -22 Z M 40.5625 -22 "/></g></g></g><g fill="#6a110a" fill-opacity="1"><g transform="translate(322.996997, 709.700553)"><g><path d="M 21.6875 0.71875 C 18.320312 0.71875 15.304688 0.144531 12.640625 -1 C 9.972656 -2.144531 7.863281 -3.742188 6.3125 -5.796875 C 4.769531 -7.847656 3.921875 -10.207031 3.765625 -12.875 L 11.28125 -12.875 C 11.488281 -10.6875 12.515625 -8.898438 14.359375 -7.515625 C 16.203125 -6.128906 18.613281 -5.4375 21.59375 -5.4375 C 24.375 -5.4375 26.5625 -6.050781 28.15625 -7.28125 C 29.757812 -8.507812 30.5625 -10.054688 30.5625 -11.921875 C 30.5625 -13.835938 29.707031 -15.257812 28 -16.1875 C 26.289062 -17.125 23.648438 -18.046875 20.078125 -18.953125 C 16.828125 -19.804688 14.175781 -20.671875 12.125 -21.546875 C 10.070312 -22.429688 8.3125 -23.738281 6.84375 -25.46875 C 5.375 -27.207031 4.640625 -29.488281 4.640625 -32.3125 C 4.640625 -34.5625 5.304688 -36.617188 6.640625 -38.484375 C 7.972656 -40.347656 9.863281 -41.828125 12.3125 -42.921875 C 14.769531 -44.015625 17.570312 -44.5625 20.71875 -44.5625 C 25.570312 -44.5625 29.488281 -43.332031 32.46875 -40.875 C 35.457031 -38.425781 37.0625 -35.066406 37.28125 -30.796875 L 30 -30.796875 C 29.84375 -33.085938 28.921875 -34.925781 27.234375 -36.3125 C 25.554688 -37.707031 23.304688 -38.40625 20.484375 -38.40625 C 17.867188 -38.40625 15.785156 -37.84375 14.234375 -36.71875 C 12.691406 -35.601562 11.921875 -34.132812 11.921875 -32.3125 C 11.921875 -30.875 12.382812 -29.6875 13.3125 -28.75 C 14.25 -27.820312 15.421875 -27.078125 16.828125 -26.515625 C 18.242188 -25.960938 20.207031 -25.335938 22.71875 -24.640625 C 25.863281 -23.785156 28.421875 -22.941406 30.390625 -22.109375 C 32.367188 -21.285156 34.0625 -20.046875 35.46875 -18.390625 C 36.882812 -16.742188 37.625 -14.585938 37.6875 -11.921875 C 37.6875 -9.515625 37.019531 -7.351562 35.6875 -5.4375 C 34.351562 -3.519531 32.472656 -2.015625 30.046875 -0.921875 C 27.617188 0.171875 24.832031 0.71875 21.6875 0.71875 Z M 21.6875 0.71875 "/></g></g></g><g fill="#6a110a" fill-opacity="1"><g transform="translate(364.755983, 709.700553)"><g><path d="M 27.921875 -44.640625 C 31.222656 -44.640625 34.207031 -43.929688 36.875 -42.515625 C 39.539062 -41.109375 41.632812 -38.988281 43.15625 -36.15625 C 44.675781 -33.332031 45.4375 -29.894531 45.4375 -25.84375 L 45.4375 0 L 38.234375 0 L 38.234375 -24.796875 C 38.234375 -29.171875 37.140625 -32.515625 34.953125 -34.828125 C 32.773438 -37.148438 29.789062 -38.3125 26 -38.3125 C 22.15625 -38.3125 19.097656 -37.113281 16.828125 -34.71875 C 14.566406 -32.320312 13.4375 -28.828125 13.4375 -24.234375 L 13.4375 0 L 6.15625 0 L 6.15625 -59.203125 L 13.4375 -59.203125 L 13.4375 -37.59375 C 14.875 -39.832031 16.859375 -41.566406 19.390625 -42.796875 C 21.929688 -44.023438 24.773438 -44.640625 27.921875 -44.640625 Z M 27.921875 -44.640625 "/></g></g></g><g fill="#6a110a" fill-opacity="1"><g transform="translate(415.954718, 709.700553)"><g><path d="M 9.921875 -50.953125 C 8.535156 -50.953125 7.359375 -51.429688 6.390625 -52.390625 C 5.429688 -53.359375 4.953125 -54.535156 4.953125 -55.921875 C 4.953125 -57.304688 5.429688 -58.476562 6.390625 -59.4375 C 7.359375 -60.394531 8.535156 -60.875 9.921875 -60.875 C 11.253906 -60.875 12.382812 -60.394531 13.3125 -59.4375 C 14.25 -58.476562 14.71875 -57.304688 14.71875 -55.921875 C 14.71875 -54.535156 14.25 -53.359375 13.3125 -52.390625 C 12.382812 -51.429688 11.253906 -50.953125 9.921875 -50.953125 Z M 13.4375 -43.84375 L 13.4375 0 L 6.15625 0 L 6.15625 -43.84375 Z M 13.4375 -43.84375 "/></g></g></g><g fill="#6a110a" fill-opacity="1"><g transform="translate(435.634252, 709.700553)"><g><path d="M 30.640625 0 L 13.4375 -19.359375 L 13.4375 0 L 6.15625 0 L 6.15625 -59.203125 L 13.4375 -59.203125 L 13.4375 -24.40625 L 30.3125 -43.84375 L 40.484375 -43.84375 L 19.84375 -22 L 40.5625 0 Z M 30.640625 0 "/></g></g></g><g fill="#6a110a" fill-opacity="1"><g transform="translate(476.833233, 709.700553)"><g><path d="M 25.28125 0.71875 C 21.175781 0.71875 17.457031 -0.210938 14.125 -2.078125 C 10.789062 -3.941406 8.175781 -6.59375 6.28125 -10.03125 C 4.382812 -13.476562 3.4375 -17.46875 3.4375 -22 C 3.4375 -26.476562 4.410156 -30.4375 6.359375 -33.875 C 8.304688 -37.320312 10.957031 -39.960938 14.3125 -41.796875 C 17.675781 -43.640625 21.4375 -44.5625 25.59375 -44.5625 C 29.757812 -44.5625 33.519531 -43.640625 36.875 -41.796875 C 40.238281 -39.960938 42.894531 -37.335938 44.84375 -33.921875 C 46.789062 -30.503906 47.765625 -26.53125 47.765625 -22 C 47.765625 -17.46875 46.765625 -13.476562 44.765625 -10.03125 C 42.765625 -6.59375 40.054688 -3.941406 36.640625 -2.078125 C 33.222656 -0.210938 29.4375 0.71875 25.28125 0.71875 Z M 25.28125 -5.6875 C 27.894531 -5.6875 30.347656 -6.296875 32.640625 -7.515625 C 34.929688 -8.742188 36.78125 -10.582031 38.1875 -13.03125 C 39.601562 -15.488281 40.3125 -18.476562 40.3125 -22 C 40.3125 -25.519531 39.617188 -28.503906 38.234375 -30.953125 C 36.847656 -33.410156 35.035156 -35.238281 32.796875 -36.4375 C 30.554688 -37.632812 28.128906 -38.234375 25.515625 -38.234375 C 22.847656 -38.234375 20.40625 -37.632812 18.1875 -36.4375 C 15.976562 -35.238281 14.207031 -33.410156 12.875 -30.953125 C 11.539062 -28.503906 10.875 -25.519531 10.875 -22 C 10.875 -18.425781 11.523438 -15.410156 12.828125 -12.953125 C 14.140625 -10.503906 15.890625 -8.679688 18.078125 -7.484375 C 20.265625 -6.285156 22.664062 -5.6875 25.28125 -5.6875 Z M 25.28125 -5.6875 "/></g></g></g></g></g></svg>