<svg xmlns="http://www.w3.org/2000/svg" xmlns:xlink="http://www.w3.org/1999/xlink" width="900" zoomAndPan="magnify" viewBox="0 0 675 149.999998" height="200" preserveAspectRatio="xMidYMid meet" version="1.0"><defs><g/><clipPath id="6a22b51731"><rect x="0" width="484" y="0" height="150"/></clipPath></defs><path fill="#fe6541" d="M 89.980469 22.964844 C 90.96875 21.480469 92.992188 19.175781 94.40625 18.113281 C 95.523438 17.273438 96.960938 16.921875 98.332031 17.160156 C 101.484375 17.707031 105.609375 22.460938 107.355469 24.945312 C 110.945312 30.050781 113.132812 36.9375 113.28125 43.164062 C 113.3125 44.40625 113.421875 45.777344 113.214844 47 C 116.683594 44.660156 122.738281 43.953125 126.816406 43.917969 C 131.578125 43.878906 135.777344 44.578125 140.21875 46.316406 C 142.878906 47.355469 146.925781 48.617188 147.578125 51.855469 C 148.082031 54.367188 145.746094 58.78125 144.410156 60.851562 C 147.378906 61.773438 152.335938 63.550781 152.675781 67.097656 C 152.996094 70.457031 149.570312 75.476562 147.605469 78.035156 C 143.179688 83.796875 135.054688 89.246094 127.816406 90.132812 C 128.714844 91.09375 129.5 91.902344 130.289062 92.984375 C 131.730469 94.957031 132.648438 96.785156 133.605469 99.015625 C 136.371094 105.46875 136.714844 111.902344 135.769531 118.789062 C 135.527344 120.539062 134.824219 122.078125 133.367188 123.144531 C 131.585938 124.453125 129.484375 124.054688 127.449219 123.714844 L 124.167969 123.148438 C 123.835938 125.667969 124.140625 129.234375 122.433594 131.246094 C 120.542969 133.476562 117.292969 132.964844 114.722656 132.59375 C 108.003906 131.601562 101.710938 128.707031 96.585938 124.25 C 93.242188 121.066406 92.238281 119.824219 89.980469 115.929688 C 88.832031 118.023438 87.453125 119.984375 85.867188 121.773438 C 80.226562 128.191406 71.199219 132.347656 62.695312 132.882812 C 60.730469 133.007812 59.210938 132.921875 57.695312 131.546875 C 56.21875 130.203125 56.050781 128.894531 55.917969 126.988281 C 55.832031 125.726562 55.78125 124.453125 55.703125 123.195312 C 53.6875 123.671875 51.632812 123.933594 49.566406 124.023438 C 46.542969 124.15625 44.457031 121.828125 44.042969 118.964844 C 43.296875 113.804688 43.242188 108.34375 44.644531 103.28125 C 45.976562 98.503906 48.496094 93.644531 52.003906 90.125 C 49.355469 89.757812 45.941406 88.433594 43.597656 87.195312 C 38.128906 84.285156 33.898438 80.21875 30.53125 75.066406 C 25.410156 67.226562 26.234375 63.476562 35.539062 60.761719 C 32.480469 55.5 29.898438 50.894531 36.921875 47.453125 C 46.203125 42.90625 57.320312 42.640625 66.867188 46.882812 C 66.703125 46.050781 66.777344 43.921875 66.816406 43.046875 C 67.03125 36.804688 68.933594 30.742188 72.320312 25.496094 C 74.175781 22.613281 78.164062 17.890625 81.578125 17.152344 C 83.820312 16.816406 85.246094 17.613281 86.765625 19.152344 C 87.9375 20.335938 88.953125 21.664062 89.980469 22.964844 Z M 89.980469 22.964844 " fill-opacity="1" fill-rule="nonzero"/><path fill="#6a110a" d="M 82.171875 18.914062 C 82.378906 18.894531 82.589844 18.890625 82.796875 18.902344 C 85.125 19.03125 88.355469 24.023438 90.007812 25.886719 C 91.71875 23.988281 94.980469 18.429688 97.863281 18.941406 C 100.472656 19.402344 104.3125 23.792969 105.828125 25.972656 C 109.882812 31.792969 111.769531 39.167969 111.441406 46.226562 C 111.382812 47.484375 111.121094 49.078125 110.910156 50.324219 C 112.347656 49.601562 113.976562 48.515625 115.414062 47.925781 C 123.679688 44.53125 132.277344 45.203125 140.484375 48.382812 C 147.75 51.199219 146.453125 52.941406 143.242188 59.175781 C 142.828125 59.984375 142.144531 60.917969 141.816406 61.726562 L 141.777344 61.820312 C 142.722656 62.210938 143.644531 62.496094 144.617188 62.859375 C 146.558594 63.582031 150.144531 64.753906 150.757812 66.964844 C 151.140625 68.339844 150.300781 70.035156 149.714844 71.21875 C 148.210938 74.257812 146.179688 77.089844 143.851562 79.554688 C 139.410156 83.882812 133.296875 87.652344 127.050781 88.394531 C 125.820312 88.539062 124.957031 88.414062 123.679688 88.769531 C 124.9375 90.253906 126.6875 91.386719 127.980469 93.019531 C 133.214844 99.613281 135.035156 108.035156 134.171875 116.28125 C 133.652344 121.285156 132.984375 122.921875 127.578125 121.875 C 126.164062 121.601562 123.941406 121.113281 122.554688 120.949219 L 122.449219 120.9375 C 122.164062 123.101562 122.367188 128.75 120.878906 130.179688 C 120.125 130.902344 119.152344 131.113281 118.140625 131.105469 C 117.070312 131.089844 115.996094 130.910156 114.9375 130.761719 C 107.730469 129.710938 101.074219 126.3125 95.996094 121.097656 C 93.082031 118.136719 91.761719 115.425781 89.976562 111.777344 C 89.519531 112.394531 88.792969 114.246094 88.363281 115.035156 C 87.261719 117.054688 85.71875 119.246094 84.15625 120.925781 C 79.042969 126.382812 71.859375 129.917969 64.460938 130.839844 C 62.546875 131.042969 60.386719 131.617188 58.839844 130.097656 C 57.382812 128.671875 57.847656 125.964844 57.609375 124.074219 C 57.496094 123.140625 57.421875 121.992188 57.394531 121.058594 C 56.445312 121.09375 55.347656 121.4375 54.425781 121.585938 C 49.972656 122.292969 46.308594 123.558594 45.714844 117.585938 C 45.433594 114.753906 45.246094 112.339844 45.453125 109.496094 C 45.898438 103.175781 48.355469 97.167969 52.46875 92.34375 C 53.464844 91.191406 55.007812 89.757812 56.183594 88.746094 C 55.027344 88.628906 53.230469 88.503906 52.136719 88.296875 C 46.703125 87.277344 41.75 84.476562 37.695312 80.785156 C 36.457031 79.640625 35.300781 78.410156 34.242188 77.097656 C 32.5 74.929688 29.417969 70.371094 29.222656 67.597656 C 29.015625 64.628906 34.167969 63.074219 36.386719 62.40625 C 36.808594 62.28125 37.878906 61.96875 38.175781 61.664062 C 38.199219 61.230469 37.214844 59.957031 36.957031 59.503906 C 33.398438 53.25 32.527344 51.042969 39.984375 48.074219 C 47.925781 44.914062 56.324219 44.957031 64.375 47.832031 C 65.285156 48.160156 66.148438 48.5625 66.992188 49.03125 C 67.730469 49.4375 68.480469 50.015625 69.261719 50.304688 C 69.179688 49.941406 69.101562 49.578125 69.03125 49.210938 C 67.605469 41.679688 69.816406 32.367188 74.167969 26.074219 C 75.789062 23.726562 79.3125 19.445312 82.171875 18.914062 Z M 82.171875 18.914062 " fill-opacity="1" fill-rule="nonzero"/><path fill="#fec9ca" d="M 82.578125 21.878906 C 83.492188 22.238281 86.746094 26.8125 87.609375 27.839844 C 88.207031 28.546875 89.289062 31.242188 90.816406 29.816406 C 91.476562 29.195312 92.203125 27.894531 92.800781 27.136719 C 94.285156 25.253906 95.753906 23.460938 97.527344 21.84375 C 98.941406 22.632812 100.410156 24.441406 101.492188 25.679688 C 105.171875 29.894531 107.539062 35.039062 108.300781 40.597656 C 109.089844 46.105469 107.855469 51.714844 104.832031 56.386719 C 103.875 57.886719 102.578125 59.636719 101.429688 61 C 99.867188 62.855469 101.667969 64.210938 103.015625 63.007812 C 103.710938 62.382812 104.734375 60.886719 105.386719 60.082031 C 106.785156 58.328125 108.316406 56.683594 109.972656 55.171875 C 112.867188 52.570312 116.421875 50.335938 120.230469 49.453125 C 127.542969 47.761719 136.484375 49.019531 142.902344 52.921875 C 142.316406 55.152344 140.855469 57.527344 139.660156 59.488281 C 139.078125 60.441406 137.421875 62.003906 137.710938 63.125 C 137.796875 63.441406 138.007812 63.710938 138.296875 63.863281 C 138.535156 63.992188 140.261719 64.40625 140.71875 64.570312 C 142.957031 65.386719 145.824219 66.300781 147.847656 67.546875 C 147.667969 68.304688 147.382812 69.019531 147.066406 69.726562 C 145.269531 73.738281 142.273438 77.148438 138.855469 79.867188 C 129.480469 87.324219 121.964844 86.742188 111.175781 83.371094 C 110.421875 83.136719 108.964844 82.503906 108.210938 82.832031 C 107.875 82.980469 107.582031 83.34375 107.476562 83.6875 C 107.398438 83.941406 107.425781 84.1875 107.554688 84.414062 C 108.105469 85.398438 110.847656 85.824219 111.941406 86.175781 C 119.214844 88.519531 125.019531 92.910156 128.578125 99.742188 C 131.128906 104.632812 131.707031 109.871094 131.308594 115.300781 C 131.230469 116.390625 131.226562 117.738281 130.875 118.777344 C 130.828125 118.921875 130.742188 119.140625 130.59375 119.214844 C 129.886719 119.550781 124.917969 118.378906 123.894531 118.105469 C 122.992188 117.859375 122.066406 117.472656 121.148438 117.324219 C 120.804688 117.269531 120.289062 117.214844 119.976562 117.402344 C 119.628906 117.613281 119.476562 118.207031 119.414062 118.578125 C 119.285156 119.359375 119.371094 120.242188 119.359375 121.039062 C 119.339844 122.316406 119.203125 126.765625 118.835938 127.753906 C 118.789062 127.882812 118.695312 128.0625 118.558594 128.109375 C 118.09375 128.28125 117.210938 128.089844 116.703125 128.035156 C 112.839844 127.628906 109.089844 126.476562 105.664062 124.644531 C 100.644531 121.972656 96.28125 117.730469 93.742188 112.601562 C 93.078125 111.261719 92.695312 110.046875 92.261719 108.632812 C 91.523438 105.804688 91.246094 103.339844 91.226562 100.402344 C 91.210938 99.09375 91.292969 97.773438 91.238281 96.46875 C 91.210938 95.714844 90.71875 95.261719 89.96875 95.273438 C 89.078125 95.285156 88.75 95.96875 88.730469 96.773438 C 88.714844 97.519531 88.761719 98.265625 88.761719 99.011719 C 88.75 100.40625 88.6875 101.800781 88.570312 103.191406 C 88.011719 109.355469 86.070312 114.207031 81.84375 118.851562 C 76.6875 124.523438 69.445312 127.667969 61.832031 128.183594 C 61.542969 128.203125 61.261719 128.199219 61.042969 127.996094 C 60.386719 126.765625 60.492188 120.367188 60.445312 118.773438 C 60.421875 117.9375 60.105469 117.015625 59.027344 117.316406 C 55.710938 118.246094 52.507812 119.148438 49.042969 119.324219 C 48.628906 117.835938 48.578125 116.546875 48.453125 115.042969 C 48.003906 109.707031 48.757812 104.5625 51.164062 99.726562 C 54.226562 93.507812 59.746094 89.261719 66.164062 86.882812 C 67.863281 86.253906 69.558594 85.714844 71.3125 85.246094 C 72.140625 85.023438 72.761719 84.371094 72.394531 83.484375 C 72.316406 83.300781 72.191406 83.140625 72.027344 83.023438 C 71.59375 82.703125 71.128906 82.683594 70.621094 82.835938 C 68.867188 83.355469 67.070312 83.910156 65.3125 84.433594 C 60.578125 85.84375 53.703125 86.359375 49.011719 84.511719 C 43.449219 82.320312 37.652344 77.242188 34.46875 72.179688 C 33.613281 70.820312 32.855469 69.054688 32.191406 67.570312 C 33.71875 66.109375 37.328125 65.261719 39.359375 64.550781 C 40.476562 64.160156 43.234375 64.097656 42.285156 62.1875 C 41.882812 61.375 41.117188 60.601562 40.625 59.824219 C 39.269531 57.675781 38.097656 55.539062 37.238281 53.140625 C 37.980469 52.390625 39.191406 51.765625 40.132812 51.3125 C 44.957031 48.984375 50.257812 48.367188 55.558594 48.835938 C 58.152344 49.066406 60.773438 49.523438 63.207031 50.515625 C 65.636719 51.503906 67.800781 53.023438 69.722656 54.78125 C 72.335938 57.167969 74.386719 59.933594 76.546875 62.710938 C 77.070312 63.382812 77.96875 63.746094 78.75 63.273438 C 79.269531 62.960938 79.328125 62.273438 79.078125 61.75 C 78.636719 60.914062 77.929688 60.234375 77.375 59.472656 C 72.613281 53.386719 70.492188 46.390625 72.136719 38.683594 C 73.496094 32.304688 76.996094 25.605469 82.578125 21.878906 Z M 82.578125 21.878906 " fill-opacity="1" fill-rule="nonzero"/><path fill="#fe6541" d="M 84.84375 80.195312 C 86.464844 79.835938 88.074219 80.859375 88.441406 82.480469 C 88.804688 84.105469 87.785156 85.714844 86.160156 86.082031 C 84.535156 86.449219 82.917969 85.425781 82.554688 83.800781 C 82.1875 82.171875 83.214844 80.558594 84.84375 80.195312 Z M 84.84375 80.195312 " fill-opacity="1" fill-rule="nonzero"/><path fill="#fe6541" d="M 93.714844 80.214844 C 95.332031 79.832031 96.949219 80.832031 97.328125 82.445312 C 97.710938 84.0625 96.707031 85.679688 95.089844 86.054688 C 93.476562 86.429688 91.867188 85.429688 91.492188 83.820312 C 91.113281 82.210938 92.109375 80.597656 93.714844 80.214844 Z M 93.714844 80.214844 " fill-opacity="1" fill-rule="nonzero"/><path fill="#fe6541" d="M 89.347656 64.734375 C 90.949219 64.3125 92.585938 65.273438 93.003906 66.875 C 93.421875 68.476562 92.460938 70.113281 90.855469 70.527344 C 89.257812 70.941406 87.625 69.984375 87.210938 68.382812 C 86.792969 66.785156 87.75 65.152344 89.347656 64.734375 Z M 89.347656 64.734375 " fill-opacity="1" fill-rule="nonzero"/><path fill="#fe6541" d="M 81.757812 71.234375 C 82.816406 71.089844 83.871094 71.527344 84.519531 72.375 C 85.164062 73.226562 85.308594 74.359375 84.886719 75.339844 C 84.46875 76.324219 83.554688 77.003906 82.492188 77.125 C 80.875 77.308594 79.414062 76.15625 79.210938 74.542969 C 79.011719 72.929688 80.144531 71.453125 81.757812 71.234375 Z M 81.757812 71.234375 " fill-opacity="1" fill-rule="nonzero"/><path fill="#fe6541" d="M 97.191406 71.292969 C 98.804688 70.988281 100.359375 72.058594 100.652344 73.679688 C 100.945312 75.300781 99.859375 76.847656 98.238281 77.125 C 96.632812 77.402344 95.105469 76.332031 94.820312 74.730469 C 94.53125 73.125 95.589844 71.589844 97.191406 71.292969 Z M 97.191406 71.292969 " fill-opacity="1" fill-rule="nonzero"/><g transform="matrix(1, 0, 0, 1, 178, -0.000000000000007527)"><g clip-path="url(#6a22b51731)"><g fill="#6a110a" fill-opacity="1"><g transform="translate(0.882144, 117.664661)"><g><path d="M 37.46875 0.875 C 31.6875 0.875 26.507812 -0.148438 21.9375 -2.203125 C 17.375 -4.253906 13.789062 -7.101562 11.1875 -10.75 C 8.59375 -14.394531 7.253906 -18.609375 7.171875 -23.390625 L 19.359375 -23.390625 C 19.785156 -19.285156 21.484375 -15.828125 24.453125 -13.015625 C 27.429688 -10.203125 31.769531 -8.796875 37.46875 -8.796875 C 42.914062 -8.796875 47.210938 -10.15625 50.359375 -12.875 C 53.503906 -15.601562 55.078125 -19.109375 55.078125 -23.390625 C 55.078125 -26.742188 54.15625 -29.46875 52.3125 -31.5625 C 50.46875 -33.65625 48.160156 -35.242188 45.390625 -36.328125 C 42.628906 -37.421875 38.898438 -38.597656 34.203125 -39.859375 C 28.421875 -41.367188 23.789062 -42.878906 20.3125 -44.390625 C 16.832031 -45.898438 13.851562 -48.269531 11.375 -51.5 C 8.90625 -54.726562 7.671875 -59.066406 7.671875 -64.515625 C 7.671875 -69.285156 8.882812 -73.515625 11.3125 -77.203125 C 13.75 -80.898438 17.164062 -83.753906 21.5625 -85.765625 C 25.96875 -87.773438 31.019531 -88.78125 36.71875 -88.78125 C 44.9375 -88.78125 51.664062 -86.722656 56.90625 -82.609375 C 62.144531 -78.503906 65.097656 -73.054688 65.765625 -66.265625 L 53.1875 -66.265625 C 52.769531 -69.617188 51.007812 -72.570312 47.90625 -75.125 C 44.8125 -77.6875 40.707031 -78.96875 35.59375 -78.96875 C 30.8125 -78.96875 26.910156 -77.726562 23.890625 -75.25 C 20.867188 -72.78125 19.359375 -69.328125 19.359375 -64.890625 C 19.359375 -61.703125 20.257812 -59.101562 22.0625 -57.09375 C 23.863281 -55.082031 26.082031 -53.550781 28.71875 -52.5 C 31.363281 -51.445312 35.078125 -50.253906 39.859375 -48.921875 C 45.648438 -47.328125 50.304688 -45.753906 53.828125 -44.203125 C 57.347656 -42.648438 60.363281 -40.257812 62.875 -37.03125 C 65.382812 -33.800781 66.640625 -29.421875 66.640625 -23.890625 C 66.640625 -19.617188 65.507812 -15.59375 63.25 -11.8125 C 60.988281 -8.039062 57.632812 -4.984375 53.1875 -2.640625 C 48.75 -0.296875 43.507812 0.875 37.46875 0.875 Z M 37.46875 0.875 "/></g></g></g><g fill="#6a110a" fill-opacity="1"><g transform="translate(74.696494, 117.664661)"><g><path d="M 5.40625 -34.703125 C 5.40625 -41.742188 6.828125 -47.925781 9.671875 -53.25 C 12.523438 -58.570312 16.445312 -62.703125 21.4375 -65.640625 C 26.425781 -68.578125 31.984375 -70.046875 38.109375 -70.046875 C 44.140625 -70.046875 49.375 -68.742188 53.8125 -66.140625 C 58.257812 -63.546875 61.570312 -60.28125 63.75 -56.34375 L 63.75 -68.90625 L 75.328125 -68.90625 L 75.328125 0 L 63.75 0 L 63.75 -12.828125 C 61.488281 -8.804688 58.113281 -5.472656 53.625 -2.828125 C 49.144531 -0.191406 43.925781 1.125 37.96875 1.125 C 31.851562 1.125 26.320312 -0.378906 21.375 -3.390625 C 16.425781 -6.410156 12.523438 -10.644531 9.671875 -16.09375 C 6.828125 -21.539062 5.40625 -27.742188 5.40625 -34.703125 Z M 63.75 -34.578125 C 63.75 -39.773438 62.703125 -44.300781 60.609375 -48.15625 C 58.515625 -52.019531 55.6875 -54.976562 52.125 -57.03125 C 48.5625 -59.082031 44.640625 -60.109375 40.359375 -60.109375 C 36.085938 -60.109375 32.191406 -59.101562 28.671875 -57.09375 C 25.148438 -55.082031 22.34375 -52.144531 20.25 -48.28125 C 18.15625 -44.425781 17.109375 -39.898438 17.109375 -34.703125 C 17.109375 -29.421875 18.15625 -24.832031 20.25 -20.9375 C 22.34375 -17.039062 25.148438 -14.0625 28.671875 -12 C 32.191406 -9.945312 36.085938 -8.921875 40.359375 -8.921875 C 44.640625 -8.921875 48.5625 -9.945312 52.125 -12 C 55.6875 -14.0625 58.515625 -17.039062 60.609375 -20.9375 C 62.703125 -24.832031 63.75 -29.378906 63.75 -34.578125 Z M 63.75 -34.578125 "/></g></g><g transform="translate(159.702473, 117.664661)"><g><path d="M 34.078125 1.125 C 28.796875 1.125 24.054688 0.222656 19.859375 -1.578125 C 15.671875 -3.378906 12.359375 -5.890625 9.921875 -9.109375 C 7.492188 -12.335938 6.15625 -16.050781 5.90625 -20.25 L 17.734375 -20.25 C 18.066406 -16.8125 19.675781 -14 22.5625 -11.8125 C 25.457031 -9.632812 29.253906 -8.546875 33.953125 -8.546875 C 38.304688 -8.546875 41.738281 -9.507812 44.25 -11.4375 C 46.769531 -13.363281 48.03125 -15.796875 48.03125 -18.734375 C 48.03125 -21.753906 46.6875 -24 44 -25.46875 C 41.320312 -26.9375 37.175781 -28.378906 31.5625 -29.796875 C 26.445312 -31.140625 22.273438 -32.503906 19.046875 -33.890625 C 15.816406 -35.273438 13.050781 -37.328125 10.75 -40.046875 C 8.445312 -42.773438 7.296875 -46.359375 7.296875 -50.796875 C 7.296875 -54.316406 8.34375 -57.546875 10.4375 -60.484375 C 12.53125 -63.421875 15.503906 -65.75 19.359375 -67.46875 C 23.222656 -69.1875 27.625 -70.046875 32.5625 -70.046875 C 40.195312 -70.046875 46.359375 -68.113281 51.046875 -64.25 C 55.742188 -60.394531 58.257812 -55.113281 58.59375 -48.40625 L 47.15625 -48.40625 C 46.90625 -52.019531 45.457031 -54.914062 42.8125 -57.09375 C 40.175781 -59.269531 36.632812 -60.359375 32.1875 -60.359375 C 28.082031 -60.359375 24.8125 -59.476562 22.375 -57.71875 C 19.945312 -55.957031 18.734375 -53.648438 18.734375 -50.796875 C 18.734375 -48.535156 19.46875 -46.671875 20.9375 -45.203125 C 22.40625 -43.734375 24.25 -42.554688 26.46875 -41.671875 C 28.6875 -40.796875 31.769531 -39.816406 35.71875 -38.734375 C 40.65625 -37.390625 44.675781 -36.066406 47.78125 -34.765625 C 50.882812 -33.472656 53.546875 -31.523438 55.765625 -28.921875 C 57.992188 -26.328125 59.148438 -22.929688 59.234375 -18.734375 C 59.234375 -14.960938 58.179688 -11.566406 56.078125 -8.546875 C 53.984375 -5.535156 51.03125 -3.171875 47.21875 -1.453125 C 43.40625 0.265625 39.023438 1.125 34.078125 1.125 Z M 34.078125 1.125 "/></g></g></g><g fill="#6a110a" fill-opacity="1"><g transform="translate(225.343178, 117.664661)"><g><path d="M 43.890625 -70.171875 C 49.085938 -70.171875 53.78125 -69.054688 57.96875 -66.828125 C 62.164062 -64.609375 65.457031 -61.273438 67.84375 -56.828125 C 70.226562 -52.390625 71.421875 -46.988281 71.421875 -40.625 L 71.421875 0 L 60.109375 0 L 60.109375 -38.984375 C 60.109375 -45.859375 58.390625 -51.117188 54.953125 -54.765625 C 51.515625 -58.410156 46.820312 -60.234375 40.875 -60.234375 C 34.832031 -60.234375 30.03125 -58.347656 26.46875 -54.578125 C 22.90625 -50.804688 21.125 -45.316406 21.125 -38.109375 L 21.125 0 L 9.6875 0 L 9.6875 -93.0625 L 21.125 -93.0625 L 21.125 -59.109375 C 23.382812 -62.628906 26.503906 -65.351562 30.484375 -67.28125 C 34.472656 -69.207031 38.941406 -70.171875 43.890625 -70.171875 Z M 43.890625 -70.171875 "/></g></g></g><g fill="#6a110a" fill-opacity="1"><g transform="translate(305.822203, 117.664661)"><g><path d="M 15.59375 -80.109375 C 13.414062 -80.109375 11.570312 -80.859375 10.0625 -82.359375 C 8.550781 -83.867188 7.796875 -85.71875 7.796875 -87.90625 C 7.796875 -90.082031 8.550781 -91.925781 10.0625 -93.4375 C 11.570312 -94.945312 13.414062 -95.703125 15.59375 -95.703125 C 17.6875 -95.703125 19.46875 -94.945312 20.9375 -93.4375 C 22.40625 -91.925781 23.140625 -90.082031 23.140625 -87.90625 C 23.140625 -85.71875 22.40625 -83.867188 20.9375 -82.359375 C 19.46875 -80.859375 17.6875 -80.109375 15.59375 -80.109375 Z M 21.125 -68.90625 L 21.125 0 L 9.6875 0 L 9.6875 -68.90625 Z M 21.125 -68.90625 "/></g></g></g><g fill="#6a110a" fill-opacity="1"><g transform="translate(336.756333, 117.664661)"><g><path d="M 48.15625 0 L 21.125 -30.4375 L 21.125 0 L 9.6875 0 L 9.6875 -93.0625 L 21.125 -93.0625 L 21.125 -38.359375 L 47.65625 -68.90625 L 63.625 -68.90625 L 31.1875 -34.578125 L 63.75 0 Z M 48.15625 0 "/></g></g></g><g fill="#6a110a" fill-opacity="1"><g transform="translate(401.516797, 117.664661)"><g><path d="M 39.734375 1.125 C 33.273438 1.125 27.425781 -0.335938 22.1875 -3.265625 C 16.945312 -6.203125 12.835938 -10.375 9.859375 -15.78125 C 6.890625 -21.1875 5.40625 -27.453125 5.40625 -34.578125 C 5.40625 -41.617188 6.9375 -47.84375 10 -53.25 C 13.0625 -58.65625 17.234375 -62.804688 22.515625 -65.703125 C 27.796875 -68.597656 33.703125 -70.046875 40.234375 -70.046875 C 46.773438 -70.046875 52.6875 -68.597656 57.96875 -65.703125 C 63.25 -62.804688 67.421875 -58.675781 70.484375 -53.3125 C 73.546875 -47.945312 75.078125 -41.703125 75.078125 -34.578125 C 75.078125 -27.453125 73.503906 -21.1875 70.359375 -15.78125 C 67.210938 -10.375 62.957031 -6.203125 57.59375 -3.265625 C 52.226562 -0.335938 46.273438 1.125 39.734375 1.125 Z M 39.734375 -8.921875 C 43.847656 -8.921875 47.707031 -9.882812 51.3125 -11.8125 C 54.914062 -13.75 57.828125 -16.644531 60.046875 -20.5 C 62.265625 -24.351562 63.375 -29.046875 63.375 -34.578125 C 63.375 -40.109375 62.285156 -44.800781 60.109375 -48.65625 C 57.929688 -52.519531 55.082031 -55.394531 51.5625 -57.28125 C 48.039062 -59.164062 44.222656 -60.109375 40.109375 -60.109375 C 35.921875 -60.109375 32.085938 -59.164062 28.609375 -57.28125 C 25.128906 -55.394531 22.34375 -52.519531 20.25 -48.65625 C 18.15625 -44.800781 17.109375 -40.109375 17.109375 -34.578125 C 17.109375 -28.960938 18.132812 -24.226562 20.1875 -20.375 C 22.238281 -16.519531 24.984375 -13.644531 28.421875 -11.75 C 31.859375 -9.863281 35.628906 -8.921875 39.734375 -8.921875 Z M 39.734375 -8.921875 "/></g></g></g></g></g></svg>