<svg xmlns="http://www.w3.org/2000/svg" xmlns:xlink="http://www.w3.org/1999/xlink" width="1280" zoomAndPan="magnify" viewBox="0 0 960 479.999983" height="640" preserveAspectRatio="xMidYMid meet" version="1.0"><defs><g/></defs><path fill="#fe6541" d="M 127.980469 133.195312 C 129.386719 131.085938 132.265625 127.8125 134.273438 126.304688 C 135.863281 125.113281 137.910156 124.613281 139.859375 124.949219 C 144.339844 125.726562 150.207031 132.476562 152.691406 136.003906 C 157.796875 143.253906 160.90625 153.035156 161.117188 161.875 C 161.164062 163.640625 161.320312 165.585938 161.023438 167.324219 C 165.957031 164 174.570312 162.996094 180.367188 162.945312 C 187.140625 162.890625 193.113281 163.882812 199.429688 166.351562 C 203.210938 167.828125 208.96875 169.621094 209.894531 174.21875 C 210.613281 177.785156 207.289062 184.050781 205.390625 186.992188 C 209.613281 188.300781 216.660156 190.824219 217.144531 195.863281 C 217.601562 200.632812 212.730469 207.761719 209.933594 211.394531 C 203.640625 219.574219 192.085938 227.3125 181.789062 228.570312 C 183.070312 229.9375 184.183594 231.085938 185.308594 232.621094 C 187.355469 235.421875 188.664062 238.019531 190.023438 241.183594 C 193.957031 250.347656 194.445312 259.484375 193.101562 269.265625 C 192.757812 271.75 191.757812 273.933594 189.683594 275.449219 C 187.152344 277.308594 184.164062 276.742188 181.269531 276.257812 L 176.601562 275.453125 C 176.128906 279.03125 176.5625 284.097656 174.136719 286.953125 C 171.445312 290.121094 166.824219 289.394531 163.167969 288.867188 C 153.613281 287.457031 144.664062 283.347656 137.375 277.019531 C 132.621094 272.496094 131.191406 270.734375 127.980469 265.203125 C 126.347656 268.175781 124.386719 270.960938 122.132812 273.5 C 114.109375 282.613281 101.269531 288.515625 89.175781 289.277344 C 86.382812 289.453125 84.222656 289.332031 82.066406 287.378906 C 79.964844 285.472656 79.726562 283.613281 79.539062 280.90625 C 79.414062 279.113281 79.34375 277.308594 79.230469 275.519531 C 76.367188 276.199219 73.441406 276.570312 70.503906 276.695312 C 66.203125 276.886719 63.238281 273.578125 62.648438 269.511719 C 61.589844 262.1875 61.511719 254.429688 63.503906 247.242188 C 65.398438 240.457031 68.980469 233.558594 73.972656 228.5625 C 70.203125 228.039062 65.347656 226.160156 62.015625 224.402344 C 54.238281 220.269531 48.222656 214.492188 43.433594 207.175781 C 36.148438 196.046875 37.320312 190.71875 50.554688 186.863281 C 46.203125 179.394531 42.53125 172.855469 52.523438 167.964844 C 65.722656 161.511719 81.53125 161.132812 95.109375 167.15625 C 94.875 165.976562 94.980469 162.953125 95.039062 161.710938 C 95.34375 152.847656 98.046875 144.238281 102.863281 136.789062 C 105.503906 132.695312 111.175781 125.988281 116.03125 124.941406 C 119.21875 124.460938 121.246094 125.59375 123.410156 127.78125 C 125.074219 129.460938 126.519531 131.347656 127.980469 133.195312 Z M 127.980469 133.195312 " fill-opacity="1" fill-rule="nonzero"/><path fill="#6a110a" d="M 116.875 127.441406 C 117.171875 127.414062 117.46875 127.40625 117.765625 127.425781 C 121.074219 127.609375 125.667969 134.695312 128.019531 137.34375 C 130.453125 134.648438 135.089844 126.753906 139.191406 127.480469 C 142.902344 128.132812 148.363281 134.371094 150.519531 137.464844 C 156.285156 145.730469 158.96875 156.203125 158.503906 166.226562 C 158.417969 168.011719 158.046875 170.273438 157.746094 172.042969 C 159.792969 171.015625 162.109375 169.476562 164.152344 168.636719 C 175.90625 163.816406 188.136719 164.773438 199.808594 169.285156 C 210.140625 173.285156 208.296875 175.761719 203.730469 184.613281 C 203.140625 185.761719 202.167969 187.085938 201.703125 188.234375 L 201.644531 188.367188 C 202.988281 188.921875 204.300781 189.328125 205.683594 189.84375 C 208.445312 190.871094 213.546875 192.535156 214.417969 195.671875 C 214.960938 197.625 213.769531 200.035156 212.933594 201.714844 C 210.796875 206.03125 207.90625 210.050781 204.59375 213.550781 C 198.277344 219.695312 189.585938 225.050781 180.703125 226.105469 C 178.953125 226.308594 177.722656 226.132812 175.90625 226.636719 C 177.695312 228.742188 180.183594 230.351562 182.023438 232.671875 C 189.46875 242.035156 192.058594 253.992188 190.828125 265.703125 C 190.089844 272.808594 189.140625 275.132812 181.453125 273.644531 C 179.441406 273.257812 176.28125 272.5625 174.308594 272.332031 L 174.15625 272.316406 C 173.75 275.386719 174.039062 283.410156 171.925781 285.4375 C 170.851562 286.464844 169.46875 286.765625 168.03125 286.753906 C 166.507812 286.730469 164.980469 286.476562 163.472656 286.265625 C 153.226562 284.773438 143.757812 279.945312 136.535156 272.542969 C 132.390625 268.335938 130.515625 264.488281 127.976562 259.308594 C 127.324219 260.183594 126.292969 262.8125 125.679688 263.933594 C 124.113281 266.800781 121.917969 269.914062 119.699219 272.296875 C 112.425781 280.046875 102.210938 285.066406 91.6875 286.375 C 88.964844 286.664062 85.894531 287.480469 83.691406 285.320312 C 81.621094 283.296875 82.28125 279.453125 81.941406 276.769531 C 81.78125 275.441406 81.675781 273.8125 81.636719 272.488281 C 80.289062 272.535156 78.726562 273.023438 77.414062 273.234375 C 71.082031 274.238281 65.871094 276.035156 65.027344 267.554688 C 64.625 263.535156 64.359375 260.105469 64.65625 256.066406 C 65.289062 247.09375 68.78125 238.5625 74.632812 231.710938 C 76.046875 230.074219 78.242188 228.039062 79.914062 226.601562 C 78.269531 226.4375 75.714844 226.257812 74.160156 225.964844 C 66.433594 224.515625 59.386719 220.539062 53.621094 215.296875 C 51.859375 213.671875 50.214844 211.925781 48.710938 210.0625 C 46.234375 206.984375 41.847656 200.511719 41.570312 196.570312 C 41.277344 192.355469 48.605469 190.148438 51.761719 189.199219 C 52.359375 189.023438 53.882812 188.578125 54.304688 188.144531 C 54.339844 187.53125 52.9375 185.722656 52.570312 185.078125 C 47.511719 176.199219 46.273438 173.0625 56.878906 168.847656 C 68.171875 164.359375 80.117188 164.421875 91.566406 168.503906 C 92.859375 168.972656 94.085938 169.542969 95.289062 170.207031 C 96.335938 170.785156 97.402344 171.605469 98.515625 172.015625 C 98.398438 171.5 98.285156 170.984375 98.1875 170.460938 C 96.160156 159.769531 99.304688 146.542969 105.492188 137.609375 C 107.796875 134.273438 112.808594 128.195312 116.875 127.441406 Z M 116.875 127.441406 " fill-opacity="1" fill-rule="nonzero"/><path fill="#fec9ca" d="M 117.453125 131.652344 C 118.753906 132.160156 123.382812 138.65625 124.609375 140.117188 C 125.457031 141.121094 126.996094 144.945312 129.167969 142.921875 C 130.109375 142.039062 131.140625 140.195312 131.992188 139.117188 C 134.101562 136.445312 136.191406 133.898438 138.714844 131.601562 C 140.726562 132.722656 142.8125 135.289062 144.351562 137.046875 C 149.585938 143.035156 152.953125 150.339844 154.035156 158.230469 C 155.15625 166.054688 153.402344 174.019531 149.101562 180.652344 C 147.742188 182.78125 145.898438 185.265625 144.265625 187.203125 C 142.042969 189.839844 144.601562 191.761719 146.519531 190.054688 C 147.507812 189.167969 148.964844 187.042969 149.890625 185.898438 C 151.878906 183.410156 154.058594 181.074219 156.414062 178.925781 C 160.53125 175.234375 165.585938 172.058594 171.003906 170.808594 C 181.402344 168.40625 194.117188 170.191406 203.246094 175.730469 C 202.414062 178.898438 200.335938 182.273438 198.632812 185.058594 C 197.808594 186.410156 195.453125 188.628906 195.863281 190.222656 C 195.984375 190.671875 196.285156 191.054688 196.695312 191.269531 C 197.035156 191.453125 199.488281 192.039062 200.140625 192.273438 C 203.324219 193.433594 207.402344 194.730469 210.277344 196.5 C 210.023438 197.574219 209.617188 198.589844 209.167969 199.59375 C 206.613281 205.292969 202.351562 210.132812 197.492188 213.996094 C 184.15625 224.582031 173.46875 223.757812 158.125 218.96875 C 157.050781 218.636719 154.980469 217.738281 153.90625 218.203125 C 153.429688 218.414062 153.011719 218.929688 152.863281 219.417969 C 152.753906 219.78125 152.792969 220.128906 152.976562 220.453125 C 153.757812 221.847656 157.65625 222.453125 159.214844 222.953125 C 169.558594 226.28125 177.8125 232.515625 182.875 242.21875 C 186.5 249.160156 187.324219 256.601562 186.757812 264.308594 C 186.644531 265.859375 186.640625 267.773438 186.140625 269.246094 C 186.074219 269.453125 185.953125 269.761719 185.742188 269.867188 C 184.734375 270.34375 177.667969 268.679688 176.214844 268.292969 C 174.929688 267.945312 173.613281 267.394531 172.308594 267.183594 C 171.820312 267.105469 171.085938 267.027344 170.640625 267.292969 C 170.144531 267.59375 169.929688 268.4375 169.839844 268.964844 C 169.65625 270.074219 169.78125 271.328125 169.761719 272.457031 C 169.734375 274.273438 169.539062 280.589844 169.019531 281.992188 C 168.953125 282.175781 168.820312 282.433594 168.625 282.5 C 167.964844 282.742188 166.707031 282.472656 165.984375 282.394531 C 160.492188 281.816406 155.15625 280.179688 150.285156 277.578125 C 143.148438 273.785156 136.941406 267.761719 133.332031 260.476562 C 132.386719 258.574219 131.84375 256.851562 131.226562 254.84375 C 130.175781 250.824219 129.78125 247.324219 129.753906 243.15625 C 129.730469 241.296875 129.847656 239.421875 129.769531 237.570312 C 129.730469 236.5 129.03125 235.855469 127.964844 235.871094 C 126.699219 235.886719 126.230469 236.859375 126.203125 238 C 126.179688 239.0625 126.246094 240.121094 126.246094 241.179688 C 126.230469 243.160156 126.140625 245.140625 125.976562 247.113281 C 125.179688 255.867188 122.417969 262.757812 116.410156 269.351562 C 109.074219 277.40625 98.777344 281.871094 87.949219 282.605469 C 87.539062 282.632812 87.136719 282.625 86.828125 282.335938 C 85.894531 280.589844 86.042969 271.503906 85.976562 269.242188 C 85.941406 268.054688 85.492188 266.746094 83.960938 267.171875 C 79.242188 268.492188 74.6875 269.773438 69.761719 270.023438 C 69.171875 267.910156 69.097656 266.078125 68.921875 263.945312 C 68.28125 256.367188 69.355469 249.0625 72.777344 242.195312 C 77.132812 233.363281 84.980469 227.335938 94.109375 223.957031 C 96.527344 223.0625 98.9375 222.296875 101.429688 221.632812 C 102.609375 221.316406 103.492188 220.390625 102.96875 219.132812 C 102.859375 218.871094 102.679688 218.644531 102.449219 218.476562 C 101.832031 218.023438 101.171875 217.992188 100.449219 218.210938 C 97.953125 218.949219 95.398438 219.734375 92.898438 220.480469 C 86.164062 222.480469 76.386719 223.214844 69.714844 220.589844 C 61.804688 217.476562 53.558594 210.265625 49.03125 203.078125 C 47.816406 201.148438 46.738281 198.640625 45.792969 196.53125 C 47.964844 194.457031 53.097656 193.253906 55.988281 192.246094 C 57.578125 191.691406 61.5 191.601562 60.148438 188.890625 C 59.578125 187.734375 58.488281 186.636719 57.789062 185.535156 C 55.859375 182.484375 54.195312 179.449219 52.972656 176.042969 C 54.027344 174.976562 55.75 174.089844 57.089844 173.445312 C 63.949219 170.140625 71.488281 169.265625 79.027344 169.929688 C 82.714844 170.257812 86.441406 170.90625 89.902344 172.316406 C 93.359375 173.71875 96.4375 175.875 99.171875 178.371094 C 102.886719 181.761719 105.804688 185.6875 108.875 189.632812 C 109.621094 190.585938 110.898438 191.101562 112.007812 190.429688 C 112.746094 189.988281 112.832031 189.011719 112.476562 188.269531 C 111.847656 187.082031 110.84375 186.117188 110.054688 185.035156 C 103.28125 176.390625 100.265625 166.457031 102.605469 155.515625 C 104.535156 146.457031 109.515625 136.941406 117.453125 131.652344 Z M 117.453125 131.652344 " fill-opacity="1" fill-rule="nonzero"/><path fill="#fe6541" d="M 120.675781 214.460938 C 122.980469 213.949219 125.269531 215.402344 125.792969 217.707031 C 126.308594 220.011719 124.859375 222.296875 122.546875 222.820312 C 120.238281 223.339844 117.9375 221.886719 117.421875 219.582031 C 116.898438 217.265625 118.359375 214.976562 120.675781 214.460938 Z M 120.675781 214.460938 " fill-opacity="1" fill-rule="nonzero"/><path fill="#fe6541" d="M 133.292969 214.488281 C 135.589844 213.945312 137.890625 215.363281 138.429688 217.65625 C 138.976562 219.953125 137.546875 222.25 135.246094 222.78125 C 132.953125 223.3125 130.664062 221.894531 130.128906 219.609375 C 129.59375 217.324219 131.007812 215.03125 133.292969 214.488281 Z M 133.292969 214.488281 " fill-opacity="1" fill-rule="nonzero"/><path fill="#fe6541" d="M 127.082031 192.507812 C 129.359375 191.90625 131.6875 193.273438 132.28125 195.546875 C 132.875 197.820312 131.507812 200.144531 129.226562 200.730469 C 126.953125 201.320312 124.632812 199.960938 124.042969 197.6875 C 123.449219 195.417969 124.808594 193.101562 127.082031 192.507812 Z M 127.082031 192.507812 " fill-opacity="1" fill-rule="nonzero"/><path fill="#fe6541" d="M 116.285156 201.734375 C 117.792969 201.53125 119.292969 202.152344 120.214844 203.355469 C 121.132812 204.566406 121.335938 206.171875 120.738281 207.566406 C 120.140625 208.964844 118.84375 209.929688 117.332031 210.101562 C 115.03125 210.363281 112.953125 208.726562 112.664062 206.433594 C 112.382812 204.144531 113.992188 202.046875 116.285156 201.734375 Z M 116.285156 201.734375 " fill-opacity="1" fill-rule="nonzero"/><path fill="#fe6541" d="M 138.234375 201.820312 C 140.53125 201.386719 142.742188 202.90625 143.160156 205.207031 C 143.574219 207.511719 142.03125 209.707031 139.726562 210.101562 C 137.441406 210.496094 135.269531 208.976562 134.863281 206.699219 C 134.453125 204.421875 135.957031 202.242188 138.234375 201.820312 Z M 138.234375 201.820312 " fill-opacity="1" fill-rule="nonzero"/><path fill="#6a110a" d="M 307.703125 268.910156 C 299.480469 268.910156 292.113281 267.457031 285.613281 264.539062 C 279.125 261.625 274.027344 257.582031 270.328125 252.402344 C 266.636719 247.226562 264.730469 241.242188 264.617188 234.453125 L 281.949219 234.453125 C 282.554688 240.28125 284.96875 245.191406 289.191406 249.183594 C 293.425781 253.179688 299.597656 255.175781 307.703125 255.175781 C 315.449219 255.175781 321.558594 253.246094 326.035156 249.382812 C 330.507812 245.511719 332.746094 240.53125 332.746094 234.453125 C 332.746094 229.691406 331.4375 225.820312 328.8125 222.847656 C 326.191406 219.875 322.910156 217.625 318.96875 216.082031 C 315.042969 214.527344 309.738281 212.859375 303.058594 211.066406 C 294.835938 208.925781 288.25 206.777344 283.304688 204.632812 C 278.355469 202.492188 274.113281 199.125 270.59375 194.539062 C 267.082031 189.957031 265.328125 183.792969 265.328125 176.054688 C 265.328125 169.28125 267.046875 163.273438 270.503906 158.039062 C 273.972656 152.792969 278.828125 148.738281 285.082031 145.878906 C 291.347656 143.027344 298.53125 141.597656 306.636719 141.597656 C 318.324219 141.597656 327.890625 144.519531 335.347656 150.363281 C 342.796875 156.191406 346.996094 163.929688 347.945312 173.570312 L 330.058594 173.570312 C 329.464844 168.8125 326.957031 164.617188 322.546875 160.988281 C 318.148438 157.351562 312.308594 155.53125 305.035156 155.53125 C 298.238281 155.53125 292.6875 157.296875 288.394531 160.8125 C 284.09375 164.316406 281.949219 169.222656 281.949219 175.523438 C 281.949219 180.046875 283.226562 183.742188 285.792969 186.59375 C 288.355469 189.449219 291.507812 191.625 295.257812 193.117188 C 299.019531 194.613281 304.304688 196.304688 311.101562 198.199219 C 319.335938 200.460938 325.957031 202.695312 330.96875 204.898438 C 335.976562 207.105469 340.261719 210.5 343.835938 215.082031 C 347.402344 219.671875 349.191406 225.886719 349.191406 233.742188 C 349.191406 239.8125 347.578125 245.523438 344.367188 250.894531 C 341.152344 256.25 336.378906 260.589844 330.058594 263.917969 C 323.746094 267.246094 316.292969 268.910156 307.703125 268.910156 Z M 307.703125 268.910156 " fill-opacity="1" fill-rule="nonzero"/><path fill="#6a110a" d="M 367.082031 218.390625 C 367.082031 208.394531 369.105469 199.613281 373.148438 192.050781 C 377.203125 184.496094 382.78125 178.628906 389.882812 174.457031 C 396.976562 170.285156 404.882812 168.199219 413.59375 168.199219 C 422.167969 168.199219 429.613281 170.054688 435.925781 173.746094 C 442.246094 177.429688 446.957031 182.066406 450.058594 187.660156 L 450.058594 169.820312 L 466.523438 169.820312 L 466.523438 267.667969 L 450.058594 267.667969 L 450.058594 249.453125 C 446.839844 255.164062 442.042969 259.894531 435.660156 263.652344 C 429.285156 267.394531 421.863281 269.265625 413.390625 269.265625 C 404.691406 269.265625 396.824219 267.128906 389.792969 262.851562 C 382.753906 258.566406 377.203125 252.550781 373.148438 244.8125 C 369.105469 237.082031 367.082031 228.273438 367.082031 218.390625 Z M 450.058594 218.566406 C 450.058594 211.1875 448.570312 204.761719 445.589844 199.285156 C 442.613281 193.800781 438.589844 189.601562 433.523438 186.683594 C 428.457031 183.769531 422.878906 182.3125 416.792969 182.3125 C 410.714844 182.3125 405.175781 183.742188 400.171875 186.59375 C 395.160156 189.449219 391.171875 193.621094 388.191406 199.109375 C 385.214844 204.582031 383.726562 211.011719 383.726562 218.390625 C 383.726562 225.886719 385.214844 232.40625 388.191406 237.9375 C 391.171875 243.472656 395.160156 247.699219 400.171875 250.628906 C 405.175781 253.542969 410.714844 255 416.792969 255 C 422.878906 255 428.457031 253.542969 433.523438 250.628906 C 438.589844 247.699219 442.613281 243.472656 445.589844 237.9375 C 448.570312 232.40625 450.058594 225.949219 450.058594 218.566406 Z M 450.058594 218.566406 " fill-opacity="1" fill-rule="nonzero"/><path fill="#6a110a" d="M 528.753906 269.265625 C 521.242188 269.265625 514.5 267.984375 508.53125 265.425781 C 502.578125 262.867188 497.867188 259.300781 494.398438 254.730469 C 490.941406 250.148438 489.042969 244.875 488.6875 238.914062 L 505.507812 238.914062 C 505.980469 243.792969 508.269531 247.789062 512.375 250.894531 C 516.492188 253.988281 521.890625 255.53125 528.574219 255.53125 C 534.765625 255.53125 539.648438 254.167969 543.21875 251.425781 C 546.804688 248.691406 548.597656 245.234375 548.597656 241.0625 C 548.597656 236.777344 546.6875 233.585938 542.863281 231.5 C 539.054688 229.414062 533.160156 227.367188 525.175781 225.355469 C 517.898438 223.449219 511.964844 221.511719 507.375 219.542969 C 502.78125 217.578125 498.847656 214.660156 495.578125 210.800781 C 492.296875 206.929688 490.664062 201.835938 490.664062 195.535156 C 490.664062 190.539062 492.152344 185.949219 495.132812 181.78125 C 498.109375 177.609375 502.335938 174.300781 507.820312 171.863281 C 513.316406 169.421875 519.574219 168.199219 526.597656 168.199219 C 537.453125 168.199219 546.21875 170.945312 552.886719 176.433594 C 559.5625 181.90625 563.140625 189.40625 563.621094 198.929688 L 547.351562 198.929688 C 546.996094 193.800781 544.9375 189.6875 541.175781 186.59375 C 537.425781 183.503906 532.386719 181.957031 526.066406 181.957031 C 520.226562 181.957031 515.574219 183.210938 512.109375 185.707031 C 508.652344 188.207031 506.933594 191.488281 506.933594 195.535156 C 506.933594 198.746094 507.976562 201.394531 510.066406 203.480469 C 512.152344 205.5625 514.777344 207.238281 517.929688 208.492188 C 521.085938 209.734375 525.46875 211.128906 531.085938 212.664062 C 538.109375 214.574219 543.824219 216.453125 548.242188 218.300781 C 552.652344 220.136719 556.441406 222.902344 559.597656 226.597656 C 562.761719 230.28125 564.40625 235.105469 564.53125 241.0625 C 564.53125 246.421875 563.03125 251.242188 560.042969 255.53125 C 557.0625 259.808594 552.863281 263.164062 547.441406 265.605469 C 542.019531 268.042969 535.785156 269.265625 528.753906 269.265625 Z M 528.753906 269.265625 " fill-opacity="1" fill-rule="nonzero"/><path fill="#6a110a" d="M 636.0625 168.023438 C 643.449219 168.023438 650.128906 169.609375 656.082031 172.769531 C 662.050781 175.921875 666.734375 180.660156 670.128906 186.972656 C 673.515625 193.273438 675.214844 200.945312 675.214844 209.980469 L 675.214844 267.667969 L 659.128906 267.667969 L 659.128906 212.308594 C 659.128906 202.546875 656.683594 195.082031 651.796875 189.898438 C 646.90625 184.726562 640.230469 182.132812 631.773438 182.132812 C 623.179688 182.132812 616.351562 184.8125 611.285156 190.167969 C 606.21875 195.523438 603.683594 203.316406 603.683594 213.550781 L 603.683594 267.667969 L 587.417969 267.667969 L 587.417969 135.519531 L 603.683594 135.519531 L 603.683594 183.730469 C 606.894531 178.734375 611.335938 174.867188 616.996094 172.128906 C 622.667969 169.394531 629.023438 168.023438 636.0625 168.023438 Z M 636.0625 168.023438 " fill-opacity="1" fill-rule="nonzero"/><path fill="#6a110a" d="M 710.273438 153.910156 C 707.175781 153.910156 704.550781 152.847656 702.410156 150.71875 C 700.257812 148.574219 699.1875 145.945312 699.1875 142.839844 C 699.1875 139.75 700.257812 137.132812 702.410156 134.984375 C 704.550781 132.84375 707.175781 131.769531 710.273438 131.769531 C 713.253906 131.769531 715.785156 132.84375 717.875 134.984375 C 719.964844 137.132812 721.007812 139.75 721.007812 142.839844 C 721.007812 145.945312 719.964844 148.574219 717.875 150.71875 C 715.785156 152.847656 713.253906 153.910156 710.273438 153.910156 Z M 718.140625 169.820312 L 718.140625 267.667969 L 701.875 267.667969 L 701.875 169.820312 Z M 718.140625 169.820312 " fill-opacity="1" fill-rule="nonzero"/><path fill="#6a110a" d="M 800.578125 267.667969 L 762.136719 224.445312 L 762.136719 267.667969 L 745.871094 267.667969 L 745.871094 135.519531 L 762.136719 135.519531 L 762.136719 213.195312 L 799.867188 169.820312 L 822.578125 169.820312 L 776.445312 218.566406 L 822.757812 267.667969 Z M 800.578125 267.667969 " fill-opacity="1" fill-rule="nonzero"/><path fill="#6a110a" d="M 880.703125 269.265625 C 871.515625 269.265625 863.199219 267.191406 855.746094 263.03125 C 848.292969 258.859375 842.449219 252.933594 838.214844 245.257812 C 833.992188 237.582031 831.882812 228.683594 831.882812 218.566406 C 831.882812 208.570312 834.058594 199.730469 838.414062 192.050781 C 842.769531 184.375 848.703125 178.484375 856.214844 174.367188 C 863.726562 170.257812 872.125 168.199219 881.414062 168.199219 C 890.714844 168.199219 899.125 170.257812 906.636719 174.367188 C 914.148438 178.484375 920.078125 184.347656 924.433594 191.964844 C 928.789062 199.585938 930.96875 208.449219 930.96875 218.566406 C 930.96875 228.683594 928.730469 237.582031 924.257812 245.257812 C 919.78125 252.933594 913.730469 258.859375 906.101562 263.03125 C 898.46875 267.191406 890.003906 269.265625 880.703125 269.265625 Z M 880.703125 255 C 886.554688 255 892.042969 253.632812 897.167969 250.894531 C 902.292969 248.140625 906.4375 244.03125 909.589844 238.558594 C 912.746094 233.089844 914.324219 226.421875 914.324219 218.566406 C 914.324219 210.710938 912.773438 204.050781 909.679688 198.574219 C 906.578125 193.089844 902.53125 189.007812 897.523438 186.328125 C 892.515625 183.652344 887.085938 182.3125 881.234375 182.3125 C 875.28125 182.3125 869.824219 183.652344 864.882812 186.328125 C 859.929688 189.007812 855.96875 193.089844 852.992188 198.574219 C 850.015625 204.050781 848.527344 210.710938 848.527344 218.566406 C 848.527344 226.542969 849.980469 233.265625 852.902344 238.734375 C 855.820312 244.210938 859.726562 248.292969 864.613281 250.980469 C 869.503906 253.660156 874.863281 255 880.703125 255 Z M 880.703125 255 " fill-opacity="1" fill-rule="nonzero"/><g fill="#6a110a" fill-opacity="1"><g transform="translate(161.518407, 375.66665)"><g><path d="M 39.203125 -34.59375 L 39.203125 0 L 34.65625 0 L 34.65625 -25.796875 L 23.15625 0 L 19.953125 0 L 8.40625 -25.84375 L 8.40625 0 L 3.84375 0 L 3.84375 -34.59375 L 8.75 -34.59375 L 21.546875 -6 L 34.34375 -34.59375 Z M 39.203125 -34.59375 "/></g></g></g><g fill="#6a110a" fill-opacity="1"><g transform="translate(204.561738, 375.66665)"><g><path d="M 15.796875 0.453125 C 13.234375 0.453125 10.910156 -0.128906 8.828125 -1.296875 C 6.742188 -2.460938 5.109375 -4.117188 3.921875 -6.265625 C 2.742188 -8.421875 2.15625 -10.914062 2.15625 -13.75 C 2.15625 -16.550781 2.757812 -19.023438 3.96875 -21.171875 C 5.1875 -23.328125 6.84375 -24.976562 8.9375 -26.125 C 11.039062 -27.269531 13.394531 -27.84375 16 -27.84375 C 18.601562 -27.84375 20.953125 -27.269531 23.046875 -26.125 C 25.148438 -24.976562 26.804688 -23.335938 28.015625 -21.203125 C 29.234375 -19.066406 29.84375 -16.582031 29.84375 -13.75 C 29.84375 -10.914062 29.21875 -8.421875 27.96875 -6.265625 C 26.71875 -4.117188 25.023438 -2.460938 22.890625 -1.296875 C 20.765625 -0.128906 18.398438 0.453125 15.796875 0.453125 Z M 15.796875 -3.546875 C 17.429688 -3.546875 18.960938 -3.925781 20.390625 -4.6875 C 21.828125 -5.457031 22.988281 -6.609375 23.875 -8.140625 C 24.757812 -9.679688 25.203125 -11.550781 25.203125 -13.75 C 25.203125 -15.945312 24.765625 -17.8125 23.890625 -19.34375 C 23.023438 -20.882812 21.894531 -22.03125 20.5 -22.78125 C 19.101562 -23.53125 17.585938 -23.90625 15.953125 -23.90625 C 14.285156 -23.90625 12.757812 -23.53125 11.375 -22.78125 C 9.988281 -22.03125 8.878906 -20.882812 8.046875 -19.34375 C 7.210938 -17.8125 6.796875 -15.945312 6.796875 -13.75 C 6.796875 -11.519531 7.203125 -9.632812 8.015625 -8.09375 C 8.835938 -6.5625 9.929688 -5.421875 11.296875 -4.671875 C 12.660156 -3.921875 14.160156 -3.546875 15.796875 -3.546875 Z M 15.796875 -3.546875 "/></g></g></g><g fill="#6a110a" fill-opacity="1"><g transform="translate(236.556785, 375.66665)"><g><path d="M 2.15625 -13.796875 C 2.15625 -16.597656 2.71875 -19.054688 3.84375 -21.171875 C 4.976562 -23.285156 6.535156 -24.925781 8.515625 -26.09375 C 10.503906 -27.257812 12.734375 -27.84375 15.203125 -27.84375 C 17.335938 -27.84375 19.320312 -27.351562 21.15625 -26.375 C 22.988281 -25.394531 24.382812 -24.101562 25.34375 -22.5 L 25.34375 -37 L 29.953125 -37 L 29.953125 0 L 25.34375 0 L 25.34375 -5.15625 C 24.445312 -3.519531 23.113281 -2.175781 21.34375 -1.125 C 19.582031 -0.0703125 17.519531 0.453125 15.15625 0.453125 C 12.71875 0.453125 10.503906 -0.144531 8.515625 -1.34375 C 6.535156 -2.550781 4.976562 -4.238281 3.84375 -6.40625 C 2.71875 -8.570312 2.15625 -11.035156 2.15625 -13.796875 Z M 25.34375 -13.75 C 25.34375 -15.8125 24.925781 -17.609375 24.09375 -19.140625 C 23.257812 -20.679688 22.132812 -21.859375 20.71875 -22.671875 C 19.300781 -23.492188 17.742188 -23.90625 16.046875 -23.90625 C 14.347656 -23.90625 12.796875 -23.503906 11.390625 -22.703125 C 9.992188 -21.898438 8.878906 -20.734375 8.046875 -19.203125 C 7.210938 -17.671875 6.796875 -15.867188 6.796875 -13.796875 C 6.796875 -11.703125 7.210938 -9.878906 8.046875 -8.328125 C 8.878906 -6.773438 9.992188 -5.585938 11.390625 -4.765625 C 12.796875 -3.953125 14.347656 -3.546875 16.046875 -3.546875 C 17.742188 -3.546875 19.300781 -3.953125 20.71875 -4.765625 C 22.132812 -5.585938 23.257812 -6.773438 24.09375 -8.328125 C 24.925781 -9.878906 25.34375 -11.6875 25.34375 -13.75 Z M 25.34375 -13.75 "/></g></g></g><g fill="#6a110a" fill-opacity="1"><g transform="translate(270.351551, 375.66665)"><g><path d="M 28.15625 -27.40625 L 28.15625 0 L 23.59375 0 L 23.59375 -4.046875 C 22.726562 -2.648438 21.519531 -1.554688 19.96875 -0.765625 C 18.425781 0.015625 16.71875 0.40625 14.84375 0.40625 C 12.71875 0.40625 10.800781 -0.0351562 9.09375 -0.921875 C 7.394531 -1.804688 6.050781 -3.128906 5.0625 -4.890625 C 4.082031 -6.660156 3.59375 -8.8125 3.59375 -11.34375 L 3.59375 -27.40625 L 8.09375 -27.40625 L 8.09375 -11.953125 C 8.09375 -9.253906 8.773438 -7.175781 10.140625 -5.71875 C 11.515625 -4.269531 13.382812 -3.546875 15.75 -3.546875 C 18.1875 -3.546875 20.101562 -4.296875 21.5 -5.796875 C 22.894531 -7.296875 23.59375 -9.476562 23.59375 -12.34375 L 23.59375 -27.40625 Z M 28.15625 -27.40625 "/></g></g></g><g fill="#6a110a" fill-opacity="1"><g transform="translate(302.346597, 375.66665)"><g><path d="M 8.40625 -37 L 8.40625 0 L 3.84375 0 L 3.84375 -37 Z M 8.40625 -37 "/></g></g></g><g fill="#6a110a" fill-opacity="1"><g transform="translate(314.644692, 375.66665)"><g><path d="M 2.15625 -13.796875 C 2.15625 -16.597656 2.71875 -19.054688 3.84375 -21.171875 C 4.976562 -23.285156 6.535156 -24.925781 8.515625 -26.09375 C 10.503906 -27.257812 12.71875 -27.84375 15.15625 -27.84375 C 17.550781 -27.84375 19.628906 -27.328125 21.390625 -26.296875 C 23.160156 -25.265625 24.476562 -23.96875 25.34375 -22.40625 L 25.34375 -27.40625 L 29.953125 -27.40625 L 29.953125 0 L 25.34375 0 L 25.34375 -5.09375 C 24.445312 -3.5 23.109375 -2.175781 21.328125 -1.125 C 19.546875 -0.0703125 17.46875 0.453125 15.09375 0.453125 C 12.664062 0.453125 10.46875 -0.144531 8.5 -1.34375 C 6.53125 -2.550781 4.976562 -4.238281 3.84375 -6.40625 C 2.71875 -8.570312 2.15625 -11.035156 2.15625 -13.796875 Z M 25.34375 -13.75 C 25.34375 -15.8125 24.925781 -17.609375 24.09375 -19.140625 C 23.257812 -20.679688 22.132812 -21.859375 20.71875 -22.671875 C 19.300781 -23.492188 17.742188 -23.90625 16.046875 -23.90625 C 14.347656 -23.90625 12.796875 -23.503906 11.390625 -22.703125 C 9.992188 -21.898438 8.878906 -20.734375 8.046875 -19.203125 C 7.210938 -17.671875 6.796875 -15.867188 6.796875 -13.796875 C 6.796875 -11.703125 7.210938 -9.878906 8.046875 -8.328125 C 8.878906 -6.773438 9.992188 -5.585938 11.390625 -4.765625 C 12.796875 -3.953125 14.347656 -3.546875 16.046875 -3.546875 C 17.742188 -3.546875 19.300781 -3.953125 20.71875 -4.765625 C 22.132812 -5.585938 23.257812 -6.773438 24.09375 -8.328125 C 24.925781 -9.878906 25.34375 -11.6875 25.34375 -13.75 Z M 25.34375 -13.75 "/></g></g></g><g fill="#6a110a" fill-opacity="1"><g transform="translate(348.439458, 375.66665)"><g><path d="M 8.40625 -22.953125 C 9.195312 -24.515625 10.332031 -25.726562 11.8125 -26.59375 C 13.300781 -27.46875 15.113281 -27.90625 17.25 -27.90625 L 17.25 -23.203125 L 16.046875 -23.203125 C 10.953125 -23.203125 8.40625 -20.4375 8.40625 -14.90625 L 8.40625 0 L 3.84375 0 L 3.84375 -27.40625 L 8.40625 -27.40625 Z M 8.40625 -22.953125 "/></g></g></g><g fill="#6a110a" fill-opacity="1"><g transform="translate(367.086574, 375.66665)"><g/></g></g><g fill="#6a110a" fill-opacity="1"><g transform="translate(380.434504, 375.66665)"><g><path d="M 5.296875 0.296875 C 4.429688 0.296875 3.695312 0 3.09375 -0.59375 C 2.5 -1.195312 2.203125 -1.929688 2.203125 -2.796875 C 2.203125 -3.660156 2.5 -4.394531 3.09375 -5 C 3.695312 -5.601562 4.429688 -5.90625 5.296875 -5.90625 C 6.128906 -5.90625 6.835938 -5.601562 7.421875 -5 C 8.003906 -4.394531 8.296875 -3.660156 8.296875 -2.796875 C 8.296875 -1.929688 8.003906 -1.195312 7.421875 -0.59375 C 6.835938 0 6.128906 0.296875 5.296875 0.296875 Z M 5.296875 0.296875 "/></g></g></g><g fill="#6a110a" fill-opacity="1"><g transform="translate(390.932878, 375.66665)"><g><path d="M 31.25 0 L 26.703125 0 L 8.40625 -27.75 L 8.40625 0 L 3.84375 0 L 3.84375 -34.90625 L 8.40625 -34.90625 L 26.703125 -7.203125 L 26.703125 -34.90625 L 31.25 -34.90625 Z M 31.25 0 "/></g></g></g><g fill="#6a110a" fill-opacity="1"><g transform="translate(426.077452, 375.66665)"><g><path d="M 8.40625 -31.15625 L 8.40625 -19.5 L 21.09375 -19.5 L 21.09375 -15.75 L 8.40625 -15.75 L 8.40625 -3.75 L 22.59375 -3.75 L 22.59375 0 L 3.84375 0 L 3.84375 -34.90625 L 22.59375 -34.90625 L 22.59375 -31.15625 Z M 8.40625 -31.15625 "/></g></g></g><g fill="#6a110a" fill-opacity="1"><g transform="translate(451.723477, 375.66665)"><g><path d="M 25.296875 -34.84375 L 25.296875 -31.15625 L 15.796875 -31.15625 L 15.796875 0 L 11.25 0 L 11.25 -31.15625 L 1.703125 -31.15625 L 1.703125 -34.84375 Z M 25.296875 -34.84375 "/></g></g></g><g fill="#6a110a" fill-opacity="1"><g transform="translate(478.769274, 375.66665)"><g/></g></g><g fill="#6a110a" fill-opacity="1"><g transform="translate(492.117204, 375.66665)"><g><path d="M 24.453125 -7.75 L 9.25 -7.75 L 6.453125 0 L 1.65625 0 L 14.25 -34.65625 L 19.5 -34.65625 L 32.046875 0 L 27.25 0 Z M 23.15625 -11.453125 L 16.84375 -29.046875 L 10.546875 -11.453125 Z M 23.15625 -11.453125 "/></g></g></g><g fill="#6a110a" fill-opacity="1"><g transform="translate(525.811972, 375.66665)"><g><path d="M 8.40625 -22.953125 C 9.195312 -24.515625 10.332031 -25.726562 11.8125 -26.59375 C 13.300781 -27.46875 15.113281 -27.90625 17.25 -27.90625 L 17.25 -23.203125 L 16.046875 -23.203125 C 10.953125 -23.203125 8.40625 -20.4375 8.40625 -14.90625 L 8.40625 0 L 3.84375 0 L 3.84375 -27.40625 L 8.40625 -27.40625 Z M 8.40625 -22.953125 "/></g></g></g><g fill="#6a110a" fill-opacity="1"><g transform="translate(544.459111, 375.66665)"><g><path d="M 2.15625 -13.75 C 2.15625 -16.582031 2.71875 -19.054688 3.84375 -21.171875 C 4.976562 -23.285156 6.550781 -24.925781 8.5625 -26.09375 C 10.582031 -27.257812 12.894531 -27.84375 15.5 -27.84375 C 18.863281 -27.84375 21.632812 -27.023438 23.8125 -25.390625 C 26 -23.765625 27.445312 -21.5 28.15625 -18.59375 L 23.25 -18.59375 C 22.78125 -20.257812 21.867188 -21.578125 20.515625 -22.546875 C 19.171875 -23.515625 17.5 -24 15.5 -24 C 12.894531 -24 10.789062 -23.109375 9.1875 -21.328125 C 7.59375 -19.546875 6.796875 -17.019531 6.796875 -13.75 C 6.796875 -10.445312 7.59375 -7.894531 9.1875 -6.09375 C 10.789062 -4.300781 12.894531 -3.40625 15.5 -3.40625 C 17.5 -3.40625 19.164062 -3.867188 20.5 -4.796875 C 21.832031 -5.734375 22.75 -7.066406 23.25 -8.796875 L 28.15625 -8.796875 C 27.414062 -5.992188 25.945312 -3.75 23.75 -2.0625 C 21.550781 -0.382812 18.800781 0.453125 15.5 0.453125 C 12.894531 0.453125 10.582031 -0.128906 8.5625 -1.296875 C 6.550781 -2.460938 4.976562 -4.113281 3.84375 -6.25 C 2.71875 -8.382812 2.15625 -10.882812 2.15625 -13.75 Z M 2.15625 -13.75 "/></g></g></g><g fill="#6a110a" fill-opacity="1"><g transform="translate(574.8044, 375.66665)"><g><path d="M 17.453125 -27.90625 C 19.515625 -27.90625 21.378906 -27.460938 23.046875 -26.578125 C 24.710938 -25.691406 26.019531 -24.363281 26.96875 -22.59375 C 27.925781 -20.832031 28.40625 -18.6875 28.40625 -16.15625 L 28.40625 0 L 23.90625 0 L 23.90625 -15.5 C 23.90625 -18.226562 23.21875 -20.316406 21.84375 -21.765625 C 20.476562 -23.222656 18.613281 -23.953125 16.25 -23.953125 C 13.851562 -23.953125 11.945312 -23.203125 10.53125 -21.703125 C 9.113281 -20.203125 8.40625 -18.019531 8.40625 -15.15625 L 8.40625 0 L 3.84375 0 L 3.84375 -37 L 8.40625 -37 L 8.40625 -23.5 C 9.300781 -24.894531 10.539062 -25.976562 12.125 -26.75 C 13.707031 -27.519531 15.484375 -27.90625 17.453125 -27.90625 Z M 17.453125 -27.90625 "/></g></g></g><g fill="#6a110a" fill-opacity="1"><g transform="translate(606.799469, 375.66665)"><g><path d="M 6.203125 -31.84375 C 5.335938 -31.84375 4.601562 -32.144531 4 -32.75 C 3.394531 -33.351562 3.09375 -34.085938 3.09375 -34.953125 C 3.09375 -35.816406 3.394531 -36.546875 4 -37.140625 C 4.601562 -37.742188 5.335938 -38.046875 6.203125 -38.046875 C 7.035156 -38.046875 7.742188 -37.742188 8.328125 -37.140625 C 8.910156 -36.546875 9.203125 -35.816406 9.203125 -34.953125 C 9.203125 -34.085938 8.910156 -33.351562 8.328125 -32.75 C 7.742188 -32.144531 7.035156 -31.84375 6.203125 -31.84375 Z M 8.40625 -27.40625 L 8.40625 0 L 3.84375 0 L 3.84375 -27.40625 Z M 8.40625 -27.40625 "/></g></g></g><g fill="#6a110a" fill-opacity="1"><g transform="translate(619.097563, 375.66665)"><g><path d="M 9.40625 -23.65625 L 9.40625 -7.5 C 9.40625 -6.164062 9.6875 -5.222656 10.25 -4.671875 C 10.8125 -4.117188 11.796875 -3.84375 13.203125 -3.84375 L 16.546875 -3.84375 L 16.546875 0 L 12.453125 0 C 9.921875 0 8.019531 -0.582031 6.75 -1.75 C 5.476562 -2.914062 4.84375 -4.832031 4.84375 -7.5 L 4.84375 -23.65625 L 1.296875 -23.65625 L 1.296875 -27.40625 L 4.84375 -27.40625 L 4.84375 -34.296875 L 9.40625 -34.296875 L 9.40625 -27.40625 L 16.546875 -27.40625 L 16.546875 -23.65625 Z M 9.40625 -23.65625 "/></g></g></g><g fill="#6a110a" fill-opacity="1"><g transform="translate(637.294721, 375.66665)"><g><path d="M 28.84375 -14.75 C 28.84375 -13.882812 28.796875 -12.96875 28.703125 -12 L 6.796875 -12 C 6.960938 -9.300781 7.882812 -7.191406 9.5625 -5.671875 C 11.25 -4.160156 13.296875 -3.40625 15.703125 -3.40625 C 17.671875 -3.40625 19.3125 -3.863281 20.625 -4.78125 C 21.9375 -5.695312 22.863281 -6.921875 23.40625 -8.453125 L 28.296875 -8.453125 C 27.566406 -5.816406 26.097656 -3.671875 23.890625 -2.015625 C 21.691406 -0.367188 18.960938 0.453125 15.703125 0.453125 C 13.097656 0.453125 10.769531 -0.128906 8.71875 -1.296875 C 6.675781 -2.460938 5.070312 -4.117188 3.90625 -6.265625 C 2.738281 -8.421875 2.15625 -10.914062 2.15625 -13.75 C 2.15625 -16.582031 2.71875 -19.066406 3.84375 -21.203125 C 4.976562 -23.335938 6.570312 -24.976562 8.625 -26.125 C 10.675781 -27.269531 13.035156 -27.84375 15.703125 -27.84375 C 18.296875 -27.84375 20.59375 -27.273438 22.59375 -26.140625 C 24.59375 -25.015625 26.132812 -23.457031 27.21875 -21.46875 C 28.300781 -19.488281 28.84375 -17.25 28.84375 -14.75 Z M 24.15625 -15.703125 C 24.15625 -17.429688 23.769531 -18.921875 23 -20.171875 C 22.226562 -21.421875 21.1875 -22.367188 19.875 -23.015625 C 18.5625 -23.671875 17.101562 -24 15.5 -24 C 13.195312 -24 11.238281 -23.265625 9.625 -21.796875 C 8.007812 -20.328125 7.082031 -18.296875 6.84375 -15.703125 Z M 24.15625 -15.703125 "/></g></g></g><g fill="#6a110a" fill-opacity="1"><g transform="translate(668.289942, 375.66665)"><g><path d="M 2.15625 -13.75 C 2.15625 -16.582031 2.71875 -19.054688 3.84375 -21.171875 C 4.976562 -23.285156 6.550781 -24.925781 8.5625 -26.09375 C 10.582031 -27.257812 12.894531 -27.84375 15.5 -27.84375 C 18.863281 -27.84375 21.632812 -27.023438 23.8125 -25.390625 C 26 -23.765625 27.445312 -21.5 28.15625 -18.59375 L 23.25 -18.59375 C 22.78125 -20.257812 21.867188 -21.578125 20.515625 -22.546875 C 19.171875 -23.515625 17.5 -24 15.5 -24 C 12.894531 -24 10.789062 -23.109375 9.1875 -21.328125 C 7.59375 -19.546875 6.796875 -17.019531 6.796875 -13.75 C 6.796875 -10.445312 7.59375 -7.894531 9.1875 -6.09375 C 10.789062 -4.300781 12.894531 -3.40625 15.5 -3.40625 C 17.5 -3.40625 19.164062 -3.867188 20.5 -4.796875 C 21.832031 -5.734375 22.75 -7.066406 23.25 -8.796875 L 28.15625 -8.796875 C 27.414062 -5.992188 25.945312 -3.75 23.75 -2.0625 C 21.550781 -0.382812 18.800781 0.453125 15.5 0.453125 C 12.894531 0.453125 10.582031 -0.128906 8.5625 -1.296875 C 6.550781 -2.460938 4.976562 -4.113281 3.84375 -6.25 C 2.71875 -8.382812 2.15625 -10.882812 2.15625 -13.75 Z M 2.15625 -13.75 "/></g></g></g><g fill="#6a110a" fill-opacity="1"><g transform="translate(698.635231, 375.66665)"><g><path d="M 9.40625 -23.65625 L 9.40625 -7.5 C 9.40625 -6.164062 9.6875 -5.222656 10.25 -4.671875 C 10.8125 -4.117188 11.796875 -3.84375 13.203125 -3.84375 L 16.546875 -3.84375 L 16.546875 0 L 12.453125 0 C 9.921875 0 8.019531 -0.582031 6.75 -1.75 C 5.476562 -2.914062 4.84375 -4.832031 4.84375 -7.5 L 4.84375 -23.65625 L 1.296875 -23.65625 L 1.296875 -27.40625 L 4.84375 -27.40625 L 4.84375 -34.296875 L 9.40625 -34.296875 L 9.40625 -27.40625 L 16.546875 -27.40625 L 16.546875 -23.65625 Z M 9.40625 -23.65625 "/></g></g></g><g fill="#6a110a" fill-opacity="1"><g transform="translate(716.832388, 375.66665)"><g><path d="M 28.15625 -27.40625 L 28.15625 0 L 23.59375 0 L 23.59375 -4.046875 C 22.726562 -2.648438 21.519531 -1.554688 19.96875 -0.765625 C 18.425781 0.015625 16.71875 0.40625 14.84375 0.40625 C 12.71875 0.40625 10.800781 -0.0351562 9.09375 -0.921875 C 7.394531 -1.804688 6.050781 -3.128906 5.0625 -4.890625 C 4.082031 -6.660156 3.59375 -8.8125 3.59375 -11.34375 L 3.59375 -27.40625 L 8.09375 -27.40625 L 8.09375 -11.953125 C 8.09375 -9.253906 8.773438 -7.175781 10.140625 -5.71875 C 11.515625 -4.269531 13.382812 -3.546875 15.75 -3.546875 C 18.1875 -3.546875 20.101562 -4.296875 21.5 -5.796875 C 22.894531 -7.296875 23.59375 -9.476562 23.59375 -12.34375 L 23.59375 -27.40625 Z M 28.15625 -27.40625 "/></g></g></g><g fill="#6a110a" fill-opacity="1"><g transform="translate(748.827456, 375.66665)"><g><path d="M 8.40625 -22.953125 C 9.195312 -24.515625 10.332031 -25.726562 11.8125 -26.59375 C 13.300781 -27.46875 15.113281 -27.90625 17.25 -27.90625 L 17.25 -23.203125 L 16.046875 -23.203125 C 10.953125 -23.203125 8.40625 -20.4375 8.40625 -14.90625 L 8.40625 0 L 3.84375 0 L 3.84375 -27.40625 L 8.40625 -27.40625 Z M 8.40625 -22.953125 "/></g></g></g><g fill="#6a110a" fill-opacity="1"><g transform="translate(767.47455, 375.66665)"><g><path d="M 28.84375 -14.75 C 28.84375 -13.882812 28.796875 -12.96875 28.703125 -12 L 6.796875 -12 C 6.960938 -9.300781 7.882812 -7.191406 9.5625 -5.671875 C 11.25 -4.160156 13.296875 -3.40625 15.703125 -3.40625 C 17.671875 -3.40625 19.3125 -3.863281 20.625 -4.78125 C 21.9375 -5.695312 22.863281 -6.921875 23.40625 -8.453125 L 28.296875 -8.453125 C 27.566406 -5.816406 26.097656 -3.671875 23.890625 -2.015625 C 21.691406 -0.367188 18.960938 0.453125 15.703125 0.453125 C 13.097656 0.453125 10.769531 -0.128906 8.71875 -1.296875 C 6.675781 -2.460938 5.070312 -4.117188 3.90625 -6.265625 C 2.738281 -8.421875 2.15625 -10.914062 2.15625 -13.75 C 2.15625 -16.582031 2.71875 -19.066406 3.84375 -21.203125 C 4.976562 -23.335938 6.570312 -24.976562 8.625 -26.125 C 10.675781 -27.269531 13.035156 -27.84375 15.703125 -27.84375 C 18.296875 -27.84375 20.59375 -27.273438 22.59375 -26.140625 C 24.59375 -25.015625 26.132812 -23.457031 27.21875 -21.46875 C 28.300781 -19.488281 28.84375 -17.25 28.84375 -14.75 Z M 24.15625 -15.703125 C 24.15625 -17.429688 23.769531 -18.921875 23 -20.171875 C 22.226562 -21.421875 21.1875 -22.367188 19.875 -23.015625 C 18.5625 -23.671875 17.101562 -24 15.5 -24 C 13.195312 -24 11.238281 -23.265625 9.625 -21.796875 C 8.007812 -20.328125 7.082031 -18.296875 6.84375 -15.703125 Z M 24.15625 -15.703125 "/></g></g></g></svg>