<svg xmlns="http://www.w3.org/2000/svg" xmlns:xlink="http://www.w3.org/1999/xlink" width="750" zoomAndPan="magnify" viewBox="0 0 562.5 562.499982" height="750" preserveAspectRatio="xMidYMid meet" version="1.0"><path fill="#fe6541" d="M 280.929688 62.796875 C 284.636719 57.230469 292.207031 48.59375 297.507812 44.613281 C 301.6875 41.46875 307.085938 40.148438 312.214844 41.039062 C 324.027344 43.089844 339.484375 60.898438 346.027344 70.210938 C 359.480469 89.339844 367.671875 115.140625 368.234375 138.476562 C 368.347656 143.125 368.757812 148.269531 367.984375 152.84375 C 380.980469 144.078125 403.652344 141.425781 418.9375 141.296875 C 436.78125 141.144531 452.507812 143.773438 469.152344 150.277344 C 479.117188 154.167969 494.289062 158.90625 496.71875 171.042969 C 498.609375 180.445312 489.867188 196.980469 484.851562 204.742188 C 495.976562 208.191406 514.550781 214.859375 515.820312 228.140625 C 517.019531 240.722656 504.1875 259.539062 496.824219 269.125 C 480.242188 290.707031 449.8125 311.121094 422.679688 314.449219 C 426.050781 318.046875 429 321.070312 431.953125 325.125 C 437.34375 332.527344 440.785156 339.378906 444.371094 347.734375 C 454.738281 371.90625 456.027344 396.015625 452.476562 421.816406 C 451.578125 428.371094 448.949219 434.140625 443.488281 438.136719 C 436.804688 443.027344 428.9375 441.546875 421.304688 440.261719 L 409.015625 438.152344 C 407.777344 447.582031 408.914062 460.953125 402.519531 468.492188 C 395.429688 476.847656 383.261719 474.917969 373.621094 473.53125 C 348.453125 469.816406 324.871094 458.96875 305.675781 442.269531 C 293.152344 430.351562 289.378906 425.691406 280.933594 411.09375 C 276.628906 418.949219 271.453125 426.296875 265.519531 433.003906 C 244.375 457.039062 210.558594 472.617188 178.691406 474.613281 C 171.332031 475.085938 165.636719 474.765625 159.972656 469.613281 C 154.4375 464.582031 153.796875 459.679688 153.308594 452.535156 C 152.988281 447.816406 152.789062 443.039062 152.503906 438.320312 C 144.949219 440.101562 137.246094 441.089844 129.503906 441.429688 C 118.183594 441.917969 110.371094 433.195312 108.816406 422.46875 C 106.015625 403.136719 105.808594 382.683594 111.070312 363.714844 C 116.054688 345.808594 125.492188 327.597656 138.648438 314.421875 C 128.710938 313.046875 115.925781 308.085938 107.152344 303.449219 C 86.660156 292.542969 70.808594 277.300781 58.195312 258.003906 C 38.996094 228.632812 42.085938 214.578125 76.957031 204.402344 C 65.492188 184.699219 55.8125 167.433594 82.132812 154.539062 C 116.90625 137.503906 158.566406 136.511719 194.328125 152.414062 C 193.71875 149.285156 194 141.3125 194.136719 138.03125 C 194.941406 114.652344 202.070312 91.929688 214.757812 72.277344 C 221.714844 61.480469 236.652344 43.78125 249.449219 41.019531 C 257.851562 39.753906 263.1875 42.746094 268.878906 48.5 C 273.265625 52.9375 277.070312 57.914062 280.929688 62.796875 Z M 280.929688 62.796875 " fill-opacity="1" fill-rule="nonzero"/><path fill="#6a110a" d="M 251.664062 47.613281 C 252.445312 47.539062 253.234375 47.523438 254.019531 47.570312 C 262.730469 48.050781 274.839844 66.753906 281.035156 73.742188 C 287.441406 66.625 299.65625 45.796875 310.46875 47.714844 C 320.234375 49.449219 334.628906 65.902344 340.308594 74.0625 C 355.5 95.875 362.558594 123.503906 361.332031 149.953125 C 361.113281 154.660156 360.128906 160.625 359.335938 165.308594 C 364.730469 162.59375 370.832031 158.523438 376.214844 156.3125 C 407.183594 143.597656 439.398438 146.117188 470.144531 158.03125 C 497.367188 168.578125 492.503906 175.105469 480.480469 198.464844 C 478.925781 201.496094 476.367188 204.988281 475.136719 208.011719 L 474.992188 208.375 C 478.535156 209.832031 481.996094 210.910156 485.636719 212.265625 C 492.902344 214.972656 506.34375 219.367188 508.640625 227.640625 C 510.070312 232.800781 506.921875 239.144531 504.726562 243.582031 C 499.089844 254.976562 491.488281 265.582031 482.757812 274.808594 C 466.121094 291.039062 443.214844 305.152344 419.820312 307.933594 C 415.210938 308.484375 411.964844 308.015625 407.179688 309.347656 C 411.898438 314.910156 418.449219 319.152344 423.304688 325.261719 C 442.90625 349.96875 449.730469 381.515625 446.503906 412.421875 C 444.546875 431.175781 442.042969 437.300781 421.800781 433.382812 C 416.496094 432.355469 408.164062 430.515625 402.976562 429.914062 L 402.582031 429.867188 C 401.503906 437.972656 402.269531 459.132812 396.691406 464.488281 C 393.871094 467.195312 390.222656 467.992188 386.441406 467.953125 C 382.421875 467.910156 378.402344 467.234375 374.433594 466.667969 C 347.4375 462.738281 322.492188 450.007812 303.46875 430.460938 C 292.542969 419.375 287.601562 409.214844 280.914062 395.550781 C 279.195312 397.847656 276.476562 404.792969 274.863281 407.746094 C 270.734375 415.320312 264.964844 423.527344 259.101562 429.824219 C 239.953125 450.257812 213.035156 463.507812 185.3125 466.960938 C 178.148438 467.730469 170.054688 469.871094 164.246094 464.179688 C 158.800781 458.84375 160.53125 448.703125 159.648438 441.613281 C 159.214844 438.125 158.9375 433.808594 158.835938 430.3125 C 155.277344 430.453125 151.167969 431.738281 147.71875 432.285156 C 131.023438 434.9375 117.296875 439.6875 115.074219 417.300781 C 114.023438 406.6875 113.320312 397.652344 114.09375 387 C 115.769531 363.320312 124.976562 340.800781 140.378906 322.734375 C 144.121094 318.421875 149.894531 313.050781 154.296875 309.246094 C 149.96875 308.808594 143.238281 308.339844 139.132812 307.570312 C 118.785156 303.746094 100.222656 293.257812 85.027344 279.421875 C 80.386719 275.140625 76.058594 270.519531 72.089844 265.609375 C 65.5625 257.492188 54.011719 240.40625 53.289062 230.011719 C 52.515625 218.898438 71.820312 213.066406 80.125 210.570312 C 81.710938 210.089844 85.71875 208.933594 86.824219 207.78125 C 86.914062 206.160156 83.234375 201.398438 82.261719 199.6875 C 68.933594 176.261719 65.667969 167.992188 93.609375 156.871094 C 123.363281 145.035156 154.824219 145.1875 184.984375 155.964844 C 188.40625 157.1875 191.636719 158.691406 194.804688 160.457031 C 197.5625 161.96875 200.371094 164.144531 203.300781 165.234375 C 202.988281 163.871094 202.699219 162.503906 202.429688 161.132812 C 197.089844 132.917969 205.375 98.015625 221.675781 74.445312 C 227.757812 65.652344 240.960938 49.609375 251.664062 47.613281 Z M 251.664062 47.613281 " fill-opacity="1" fill-rule="nonzero"/><path fill="#fec9ca" d="M 253.191406 58.730469 C 256.613281 60.074219 268.816406 77.214844 272.046875 81.054688 C 274.285156 83.714844 278.34375 93.808594 284.054688 88.464844 C 286.535156 86.144531 289.253906 81.261719 291.496094 78.417969 C 297.050781 71.371094 302.5625 64.652344 309.207031 58.589844 C 314.5 61.554688 320.007812 68.328125 324.050781 72.960938 C 337.839844 88.765625 346.714844 108.03125 349.5625 128.851562 C 352.519531 149.496094 347.90625 170.511719 336.566406 188.015625 C 332.984375 193.628906 328.125 200.1875 323.820312 205.300781 C 317.96875 212.25 324.710938 217.332031 329.757812 212.816406 C 332.375 210.480469 336.207031 204.878906 338.652344 201.855469 C 343.882812 195.28125 349.628906 189.128906 355.832031 183.464844 C 366.671875 173.714844 379.988281 165.347656 394.265625 162.039062 C 421.664062 155.695312 455.164062 160.410156 479.203125 175.027344 C 477.015625 183.382812 471.535156 192.289062 467.054688 199.632812 C 464.875 203.203125 458.667969 209.0625 459.75 213.261719 C 460.074219 214.449219 460.871094 215.449219 461.953125 216.03125 C 462.847656 216.511719 469.316406 218.054688 471.019531 218.671875 C 479.410156 221.730469 490.152344 225.164062 497.734375 229.824219 C 497.066406 232.664062 495.996094 235.339844 494.804688 237.996094 C 488.082031 253.015625 476.847656 265.800781 464.046875 275.984375 C 428.921875 303.921875 400.765625 301.746094 360.34375 289.117188 C 357.515625 288.234375 352.054688 285.871094 349.230469 287.101562 C 347.96875 287.652344 346.878906 289.007812 346.476562 290.304688 C 346.179688 291.246094 346.289062 292.167969 346.773438 293.027344 C 348.839844 296.710938 359.117188 298.308594 363.214844 299.625 C 390.457031 308.398438 412.199219 324.855469 425.539062 350.449219 C 435.089844 368.777344 437.257812 388.398438 435.773438 408.738281 C 435.472656 412.832031 435.464844 417.875 434.148438 421.765625 C 433.964844 422.3125 433.640625 423.136719 433.085938 423.402344 C 430.441406 424.667969 411.828125 420.285156 407.992188 419.25 C 404.605469 418.335938 401.144531 416.882812 397.699219 416.324219 C 396.421875 416.117188 394.484375 415.910156 393.3125 416.621094 C 392.007812 417.414062 391.441406 419.632812 391.210938 421.023438 C 390.726562 423.957031 391.042969 427.257812 390.996094 430.25 C 390.933594 435.039062 390.410156 451.703125 389.042969 455.40625 C 388.871094 455.886719 388.507812 456.554688 388.003906 456.742188 C 386.257812 457.382812 382.945312 456.667969 381.054688 456.457031 C 366.578125 454.929688 352.53125 450.617188 339.695312 443.753906 C 320.878906 433.746094 304.53125 417.84375 295.019531 398.632812 C 292.535156 393.605469 291.101562 389.0625 289.476562 383.765625 C 286.703125 373.164062 285.675781 363.9375 285.59375 352.921875 C 285.539062 348.015625 285.839844 343.082031 285.644531 338.183594 C 285.53125 335.363281 283.6875 333.671875 280.886719 333.707031 C 277.550781 333.753906 276.3125 336.308594 276.246094 339.324219 C 276.183594 342.117188 276.367188 344.917969 276.363281 347.714844 C 276.320312 352.9375 276.078125 358.160156 275.636719 363.371094 C 273.554688 386.464844 266.273438 404.648438 250.449219 422.046875 C 231.121094 443.296875 203.996094 455.082031 175.46875 457.003906 C 174.382812 457.078125 173.332031 457.070312 172.511719 456.304688 C 170.050781 451.699219 170.441406 427.71875 170.265625 421.757812 C 170.175781 418.621094 169 415.164062 164.949219 416.300781 C 152.523438 419.789062 140.523438 423.15625 127.542969 423.8125 C 126.003906 418.25 125.808594 413.417969 125.335938 407.78125 C 123.65625 387.792969 126.480469 368.511719 135.488281 350.394531 C 146.96875 327.09375 167.65625 311.183594 191.699219 302.273438 C 198.066406 299.914062 204.417969 297.894531 210.988281 296.140625 C 214.09375 295.3125 216.410156 292.863281 215.035156 289.546875 C 214.746094 288.855469 214.269531 288.257812 213.667969 287.816406 C 212.03125 286.617188 210.292969 286.535156 208.390625 287.101562 C 201.816406 289.0625 195.085938 291.140625 188.511719 293.09375 C 170.761719 298.375 145.011719 300.3125 127.429688 293.390625 C 106.59375 285.183594 84.875 266.152344 72.941406 247.179688 C 69.742188 242.097656 66.902344 235.480469 64.417969 229.914062 C 70.136719 224.441406 83.652344 221.269531 91.261719 218.601562 C 95.457031 217.132812 105.789062 216.90625 102.226562 209.742188 C 100.71875 206.703125 97.847656 203.808594 96.011719 200.898438 C 90.925781 192.84375 86.535156 184.832031 83.324219 175.855469 C 86.101562 173.042969 90.636719 170.695312 94.160156 169 C 112.238281 160.277344 132.101562 157.96875 151.960938 159.726562 C 161.683594 160.589844 171.496094 162.300781 180.609375 166.007812 C 189.714844 169.710938 197.824219 175.410156 205.023438 181.992188 C 214.816406 190.941406 222.507812 201.308594 230.59375 211.703125 C 232.550781 214.222656 235.925781 215.589844 238.851562 213.824219 C 240.792969 212.648438 241.023438 210.066406 240.082031 208.113281 C 238.429688 204.972656 235.769531 202.429688 233.695312 199.570312 C 215.851562 176.765625 207.914062 150.5625 214.074219 121.6875 C 219.167969 97.789062 232.277344 72.6875 253.191406 58.730469 Z M 253.191406 58.730469 " fill-opacity="1" fill-rule="nonzero"/><path fill="#fe6541" d="M 261.675781 277.21875 C 267.761719 275.867188 273.789062 279.699219 275.15625 285.78125 C 276.515625 291.863281 272.695312 297.902344 266.617188 299.269531 C 260.519531 300.648438 254.464844 296.816406 253.097656 290.722656 C 251.734375 284.625 255.574219 278.574219 261.675781 277.21875 Z M 261.675781 277.21875 " fill-opacity="1" fill-rule="nonzero"/><path fill="#fe6541" d="M 294.925781 277.292969 C 300.972656 275.855469 307.035156 279.597656 308.460938 285.652344 C 309.882812 291.703125 306.125 297.761719 300.070312 299.167969 C 294.03125 300.574219 288 296.828125 286.585938 290.796875 C 285.164062 284.765625 288.898438 278.726562 294.925781 277.292969 Z M 294.925781 277.292969 " fill-opacity="1" fill-rule="nonzero"/><path fill="#fe6541" d="M 278.554688 219.285156 C 284.550781 217.714844 290.6875 221.308594 292.253906 227.308594 C 293.816406 233.308594 290.214844 239.4375 284.210938 240.996094 C 278.222656 242.546875 272.109375 238.953125 270.542969 232.964844 C 268.984375 226.976562 272.570312 220.855469 278.554688 219.285156 Z M 278.554688 219.285156 " fill-opacity="1" fill-rule="nonzero"/><path fill="#fe6541" d="M 250.121094 243.648438 C 254.085938 243.109375 258.035156 244.738281 260.460938 247.925781 C 262.886719 251.105469 263.417969 255.347656 261.84375 259.027344 C 260.277344 262.707031 256.847656 265.261719 252.875 265.714844 C 246.816406 266.402344 241.339844 262.089844 240.582031 256.042969 C 239.828125 249.996094 244.082031 244.46875 250.121094 243.648438 Z M 250.121094 243.648438 " fill-opacity="1" fill-rule="nonzero"/><path fill="#fe6541" d="M 307.9375 243.859375 C 313.996094 242.71875 319.820312 246.738281 320.914062 252.804688 C 322.003906 258.871094 317.945312 264.671875 311.871094 265.714844 C 305.855469 266.75 300.132812 262.742188 299.054688 256.738281 C 297.972656 250.734375 301.941406 244.980469 307.9375 243.859375 Z M 307.9375 243.859375 " fill-opacity="1" fill-rule="nonzero"/><path fill="#fe6541" d="M 184.1875 532.222656 C 181.425781 532.222656 178.953125 531.738281 176.777344 530.761719 C 174.597656 529.777344 172.890625 528.417969 171.648438 526.6875 C 170.414062 524.949219 169.777344 522.9375 169.742188 520.65625 L 175.546875 520.65625 C 175.75 522.617188 176.5625 524.269531 177.984375 525.609375 C 179.402344 526.945312 181.472656 527.609375 184.1875 527.609375 C 186.789062 527.609375 188.835938 526.964844 190.335938 525.667969 C 191.835938 524.363281 192.582031 522.695312 192.582031 520.65625 C 192.582031 519.058594 192.140625 517.757812 191.261719 516.757812 C 190.375 515.757812 189.277344 515 187.957031 514.484375 C 186.636719 513.964844 184.863281 513.402344 182.632812 512.800781 C 179.867188 512.082031 177.65625 511.367188 175.992188 510.644531 C 174.335938 509.917969 172.917969 508.789062 171.742188 507.25 C 170.5625 505.714844 169.976562 503.644531 169.976562 501.042969 C 169.976562 498.773438 170.550781 496.757812 171.707031 495.003906 C 172.871094 493.242188 174.5 491.878906 176.601562 490.917969 C 178.699219 489.957031 181.109375 489.476562 183.824219 489.476562 C 187.742188 489.476562 190.949219 490.457031 193.449219 492.414062 C 195.945312 494.375 197.355469 496.976562 197.675781 500.214844 L 191.683594 500.214844 C 191.476562 498.617188 190.632812 497.203125 189.152344 495.988281 C 187.679688 494.769531 185.722656 494.160156 183.289062 494.160156 C 181.007812 494.160156 179.144531 494.75 177.703125 495.929688 C 176.265625 497.109375 175.546875 498.757812 175.546875 500.871094 C 175.546875 502.390625 175.976562 503.632812 176.835938 504.59375 C 177.703125 505.546875 178.761719 506.273438 180.019531 506.769531 C 181.277344 507.269531 183.042969 507.839844 185.324219 508.480469 C 188.078125 509.246094 190.292969 510 191.976562 510.738281 C 193.652344 511.472656 195.09375 512.609375 196.296875 514.144531 C 197.496094 515.6875 198.097656 517.773438 198.097656 520.410156 C 198.097656 522.449219 197.554688 524.367188 196.472656 526.171875 C 195.394531 527.96875 193.792969 529.425781 191.671875 530.550781 C 189.554688 531.667969 187.058594 532.222656 184.1875 532.222656 Z M 184.1875 532.222656 " fill-opacity="1" fill-rule="nonzero"/><path fill="#fe6541" d="M 204.085938 515.257812 C 204.085938 511.90625 204.765625 508.957031 206.121094 506.417969 C 207.480469 503.882812 209.347656 501.917969 211.730469 500.519531 C 214.109375 499.113281 216.757812 498.410156 219.667969 498.410156 C 222.550781 498.410156 225.046875 499.03125 227.164062 500.273438 C 229.285156 501.511719 230.867188 503.070312 231.90625 504.945312 L 231.90625 498.949219 L 237.417969 498.949219 L 237.417969 531.800781 L 231.90625 531.800781 L 231.90625 525.691406 C 230.828125 527.609375 229.21875 529.199219 227.082031 530.457031 C 224.941406 531.714844 222.449219 532.339844 219.609375 532.339844 C 216.691406 532.339844 214.050781 531.625 211.695312 530.1875 C 209.335938 528.742188 207.480469 526.726562 206.121094 524.132812 C 204.765625 521.535156 204.085938 518.578125 204.085938 515.257812 Z M 231.90625 515.316406 C 231.90625 512.84375 231.402344 510.691406 230.40625 508.855469 C 229.40625 507.011719 228.054688 505.605469 226.355469 504.628906 C 224.660156 503.644531 222.796875 503.152344 220.757812 503.152344 C 218.710938 503.152344 216.851562 503.632812 215.171875 504.59375 C 213.492188 505.546875 212.15625 506.941406 211.15625 508.785156 C 210.15625 510.621094 209.660156 512.777344 209.660156 515.257812 C 209.660156 517.773438 210.15625 519.960938 211.15625 521.828125 C 212.15625 523.6875 213.492188 525.101562 215.171875 526.078125 C 216.851562 527.054688 218.710938 527.539062 220.757812 527.539062 C 222.796875 527.539062 224.660156 527.054688 226.355469 526.078125 C 228.054688 525.101562 229.40625 523.6875 230.40625 521.828125 C 231.402344 519.960938 231.90625 517.792969 231.90625 515.316406 Z M 231.90625 515.316406 " fill-opacity="1" fill-rule="nonzero"/><path fill="#fe6541" d="M 258.285156 532.339844 C 255.761719 532.339844 253.5 531.910156 251.503906 531.054688 C 249.503906 530.195312 247.925781 529 246.761719 527.457031 C 245.605469 525.921875 244.972656 524.152344 244.855469 522.15625 L 250.484375 522.15625 C 250.640625 523.792969 251.410156 525.132812 252.792969 526.171875 C 254.175781 527.210938 255.980469 527.726562 258.214844 527.726562 C 260.296875 527.726562 261.9375 527.269531 263.132812 526.347656 C 264.332031 525.425781 264.933594 524.269531 264.933594 522.871094 C 264.933594 521.433594 264.292969 520.371094 263.015625 519.671875 C 261.730469 518.96875 259.753906 518.28125 257.078125 517.601562 C 254.640625 516.960938 252.65625 516.3125 251.117188 515.65625 C 249.578125 514.996094 248.261719 514.015625 247.160156 512.71875 C 246.058594 511.414062 245.511719 509.707031 245.511719 507.589844 C 245.511719 505.902344 246.007812 504.363281 247.007812 502.964844 C 248.007812 501.570312 249.421875 500.460938 251.257812 499.640625 C 253.101562 498.820312 255.199219 498.410156 257.558594 498.410156 C 261.191406 498.410156 264.128906 499.332031 266.363281 501.171875 C 268.601562 503.007812 269.804688 505.527344 269.96875 508.726562 L 264.511719 508.726562 C 264.394531 507.011719 263.703125 505.632812 262.441406 504.59375 C 261.179688 503.546875 259.496094 503.023438 257.382812 503.023438 C 255.421875 503.023438 253.859375 503.445312 252.699219 504.289062 C 251.542969 505.125 250.964844 506.226562 250.964844 507.589844 C 250.964844 508.667969 251.3125 509.558594 252.007812 510.257812 C 252.710938 510.957031 253.589844 511.511719 254.640625 511.933594 C 255.703125 512.347656 257.175781 512.816406 259.054688 513.339844 C 261.414062 513.980469 263.332031 514.613281 264.804688 515.234375 C 266.285156 515.851562 267.558594 516.78125 268.609375 518.023438 C 269.671875 519.257812 270.226562 520.871094 270.273438 522.871094 C 270.273438 524.671875 269.773438 526.292969 268.773438 527.726562 C 267.773438 529.164062 266.367188 530.292969 264.546875 531.113281 C 262.726562 531.929688 260.640625 532.339844 258.285156 532.339844 Z M 258.285156 532.339844 " fill-opacity="1" fill-rule="nonzero"/><path fill="#fe6541" d="M 294.246094 498.351562 C 296.71875 498.351562 298.957031 498.882812 300.957031 499.945312 C 302.953125 500.996094 304.519531 502.585938 305.664062 504.710938 C 306.800781 506.824219 307.371094 509.402344 307.371094 512.4375 L 307.371094 531.800781 L 301.972656 531.800781 L 301.972656 513.222656 C 301.972656 509.941406 301.15625 507.4375 299.515625 505.703125 C 297.882812 503.964844 295.644531 503.09375 292.808594 503.09375 C 289.925781 503.09375 287.632812 503.992188 285.933594 505.785156 C 284.238281 507.582031 283.394531 510.199219 283.394531 513.644531 L 283.394531 531.800781 L 277.9375 531.800781 L 277.9375 487.441406 L 283.394531 487.441406 L 283.394531 503.632812 C 284.46875 501.957031 285.957031 500.65625 287.855469 499.734375 C 289.757812 498.8125 291.886719 498.351562 294.246094 498.351562 Z M 294.246094 498.351562 " fill-opacity="1" fill-rule="nonzero"/><path fill="#fe6541" d="M 319.125 493.621094 C 318.085938 493.621094 317.203125 493.265625 316.476562 492.542969 C 315.757812 491.820312 315.402344 490.9375 315.402344 489.898438 C 315.402344 488.863281 315.757812 487.984375 316.476562 487.265625 C 317.203125 486.546875 318.085938 486.1875 319.125 486.1875 C 320.121094 486.1875 320.96875 486.546875 321.664062 487.265625 C 322.367188 487.984375 322.71875 488.863281 322.71875 489.898438 C 322.71875 490.9375 322.367188 491.820312 321.664062 492.542969 C 320.96875 493.265625 320.121094 493.621094 319.125 493.621094 Z M 321.757812 498.949219 L 321.757812 531.800781 L 316.300781 531.800781 L 316.300781 498.949219 Z M 321.757812 498.949219 " fill-opacity="1" fill-rule="nonzero"/><path fill="#fe6541" d="M 349.394531 531.800781 L 336.503906 517.296875 L 336.503906 531.800781 L 331.046875 531.800781 L 331.046875 487.441406 L 336.503906 487.441406 L 336.503906 513.515625 L 349.148438 498.949219 L 356.773438 498.949219 L 341.304688 515.316406 L 356.832031 531.800781 Z M 349.394531 531.800781 " fill-opacity="1" fill-rule="nonzero"/><path fill="#fe6541" d="M 376.25 532.339844 C 373.175781 532.339844 370.386719 531.644531 367.890625 530.246094 C 365.390625 528.847656 363.433594 526.863281 362.015625 524.285156 C 360.589844 521.703125 359.882812 518.710938 359.882812 515.316406 C 359.882812 511.960938 360.613281 508.996094 362.074219 506.417969 C 363.53125 503.835938 365.519531 501.859375 368.03125 500.484375 C 370.550781 499.101562 373.371094 498.410156 376.484375 498.410156 C 379.605469 498.410156 382.425781 499.101562 384.9375 500.484375 C 387.460938 501.859375 389.449219 503.824219 390.910156 506.382812 C 392.367188 508.945312 393.101562 511.921875 393.101562 515.316406 C 393.101562 518.710938 392.351562 521.703125 390.851562 524.285156 C 389.351562 526.863281 387.320312 528.847656 384.761719 530.246094 C 382.203125 531.644531 379.367188 532.339844 376.25 532.339844 Z M 376.25 527.539062 C 378.210938 527.539062 380.046875 527.085938 381.765625 526.171875 C 383.480469 525.25 384.867188 523.875 385.921875 522.039062 C 386.980469 520.195312 387.515625 517.957031 387.515625 515.316406 C 387.515625 512.679688 386.992188 510.445312 385.957031 508.609375 C 384.917969 506.765625 383.558594 505.398438 381.882812 504.5 C 380.203125 503.601562 378.386719 503.152344 376.425781 503.152344 C 374.429688 503.152344 372.597656 503.601562 370.9375 504.5 C 369.277344 505.398438 367.953125 506.765625 366.953125 508.609375 C 365.953125 510.445312 365.457031 512.679688 365.457031 515.316406 C 365.457031 517.996094 365.941406 520.253906 366.917969 522.097656 C 367.902344 523.933594 369.214844 525.296875 370.855469 526.195312 C 372.492188 527.09375 374.289062 527.539062 376.25 527.539062 Z M 376.25 527.539062 " fill-opacity="1" fill-rule="nonzero"/></svg>