<?xml version="1.0" encoding="utf-8" ?><svg xmlns="http://www.w3.org/2000/svg" xmlns:xlink="http://www.w3.org/1999/xlink" width="2000" height="2000" viewBox="0 0 2000 2000"><path fill="#FE6541" d="M999.754 306.221C1012.94 286.405 1039.87 255.674 1058.75 241.495C1073.63 230.314 1092.83 225.617 1111.08 228.786C1153.12 236.082 1208.12 299.458 1231.41 332.59C1279.29 400.674 1308.44 492.489 1310.44 575.543C1310.84 592.086 1312.3 610.379 1309.55 626.665C1355.8 595.481 1436.49 586.032 1490.88 585.571C1554.39 585.032 1610.34 594.379 1669.58 617.531C1705.04 631.387 1759.03 648.241 1767.69 691.424C1774.41 724.895 1743.3 783.735 1725.45 811.357C1765.04 823.63 1831.15 847.365 1835.66 894.621C1839.93 939.408 1794.26 1006.36 1768.05 1040.48C1709.04 1117.28 1600.75 1189.93 1504.2 1201.77C1516.19 1214.57 1526.69 1225.34 1537.2 1239.77C1556.39 1266.11 1568.63 1290.49 1581.39 1320.23C1618.28 1406.25 1622.87 1492.04 1610.24 1583.86C1607.04 1607.19 1597.68 1627.72 1578.25 1641.94C1554.46 1659.35 1526.47 1654.08 1499.3 1649.51L1455.57 1642C1451.17 1675.56 1455.21 1723.14 1432.45 1749.97C1407.22 1779.71 1363.92 1772.84 1329.61 1767.9C1240.04 1754.68 1156.12 1716.07 1087.81 1656.65C1043.24 1614.24 1029.82 1597.65 999.757 1545.71C984.435 1573.66 966.036 1599.81 944.904 1623.67C869.669 1709.22 749.315 1764.65 635.918 1771.75C609.714 1773.43 589.456 1772.3 569.294 1753.96C549.592 1736.05 547.328 1718.6 545.587 1693.17C544.437 1676.38 543.736 1659.38 542.718 1642.59C515.837 1648.94 488.419 1652.45 460.862 1653.65C420.587 1655.4 392.782 1624.36 387.25 1586.19C377.279 1517.38 376.542 1444.6 395.266 1377.09C413.002 1313.37 446.592 1248.57 493.403 1201.67C458.056 1196.78 412.551 1179.12 381.319 1162.62C308.396 1123.82 251.989 1069.57 207.095 1000.89C138.782 896.378 149.767 846.366 273.872 810.157C233.071 740.025 198.627 678.584 292.294 632.698C416.036 572.078 564.294 568.534 691.562 625.128C689.386 614.002 690.384 585.623 690.879 573.945C693.743 490.748 719.101 409.883 764.257 339.948C789.025 301.526 842.174 238.542 887.723 228.719C917.612 224.208 936.604 234.866 956.861 255.339C972.482 271.127 986.024 288.834 999.754 306.221Z"/><path fill="#6A110A" d="M895.602 252.182C898.385 251.91 901.185 251.857 903.976 252.024C934.981 253.733 978.069 320.297 1000.12 345.167C1022.93 319.844 1066.4 245.713 1104.86 252.542C1139.63 258.715 1190.84 317.264 1211.06 346.297C1265.12 423.932 1290.24 522.248 1285.88 616.372C1285.09 633.134 1281.59 654.359 1278.78 671.014C1297.97 661.362 1319.69 646.877 1338.84 639.012C1449.05 593.756 1563.69 602.722 1673.11 645.119C1769.99 682.66 1752.69 705.88 1709.9 789.02C1704.36 799.805 1695.25 812.23 1690.87 822.999L1690.36 824.276C1702.97 829.477 1715.28 833.298 1728.25 838.134C1754.09 847.771 1801.93 863.403 1810.1 892.845C1815.2 911.21 1803.99 933.778 1796.18 949.569C1776.13 990.128 1749.06 1027.87 1718 1060.71C1658.79 1118.46 1577.28 1168.68 1494.02 1178.59C1477.61 1180.54 1466.07 1178.87 1449.04 1183.61C1465.83 1203.41 1489.15 1218.51 1506.43 1240.26C1576.18 1328.17 1600.46 1440.45 1588.98 1550.44C1582.02 1617.16 1573.1 1638.97 1501.06 1625.02C1482.2 1621.37 1452.54 1614.82 1434.07 1612.67L1432.68 1612.52C1428.83 1641.35 1431.56 1716.65 1411.71 1735.72C1401.68 1745.35 1388.7 1748.2 1375.23 1748.05C1360.94 1747.89 1346.63 1745.49 1332.5 1743.48C1236.43 1729.49 1147.66 1684.19 1079.96 1614.62C1041.07 1575.17 1023.49 1539.02 999.694 1490.39C993.575 1498.57 983.903 1523.28 978.171 1533.79C963.469 1560.75 942.941 1589.96 922.063 1612.36C853.93 1685.08 758.139 1732.23 659.478 1744.52C633.981 1747.26 605.18 1754.87 584.511 1734.62C565.127 1715.63 571.278 1679.55 568.142 1654.31C566.601 1641.9 565.619 1626.54 565.245 1614.09C552.582 1614.6 537.956 1619.17 525.689 1621.12C466.285 1630.55 417.424 1647.46 409.52 1567.79C405.775 1530.03 403.268 1497.86 406.02 1459.96C411.985 1375.7 444.764 1295.55 499.56 1231.26C512.884 1215.9 533.43 1196.79 549.104 1183.26C533.697 1181.71 509.737 1180.03 495.137 1177.29C422.715 1163.68 356.664 1126.35 302.593 1077.12C286.07 1061.88 270.681 1045.45 256.551 1027.97C233.325 999.082 192.214 938.282 189.636 901.281C186.881 861.742 255.58 840.979 285.15 832.09C290.793 830.394 305.05 826.272 308.987 822.175C309.302 816.401 296.211 799.452 292.75 793.37C245.308 709.996 233.692 680.574 333.14 640.998C439.006 598.868 550.977 599.412 658.314 637.772C670.492 642.124 681.974 647.474 693.253 653.759C703.067 659.141 713.066 666.883 723.489 670.753C722.378 665.907 721.345 661.044 720.391 656.165C701.384 555.754 730.872 431.545 788.882 347.665C810.522 316.375 857.507 259.292 895.602 252.182Z"/><path fill="#FEC9CA" d="M901.046 291.742C913.222 296.519 956.639 357.525 968.139 371.188C976.104 380.649 990.541 416.585 1010.87 397.559C1019.7 389.296 1029.38 371.926 1037.35 361.813C1057.13 336.722 1076.74 312.818 1100.38 291.244C1119.22 301.788 1138.82 325.89 1153.21 342.384C1202.27 398.618 1233.85 467.181 1243.99 541.279C1254.52 614.747 1238.09 689.544 1197.74 751.833C1185 771.812 1167.71 795.15 1152.39 813.339C1131.56 838.072 1155.55 856.156 1173.52 840.09C1182.82 831.78 1196.47 811.837 1205.17 801.079C1223.78 777.684 1244.23 755.802 1266.3 735.639C1304.88 700.941 1352.27 671.16 1403.08 659.391C1500.58 636.807 1619.8 653.592 1705.35 705.616C1697.56 735.339 1678.06 767.036 1662.11 793.171C1654.36 805.87 1632.27 826.73 1636.13 841.674C1637.27 845.899 1640.1 849.466 1643.96 851.526C1647.15 853.248 1670.17 858.732 1676.23 860.939C1706.08 871.806 1744.31 884.031 1771.3 900.622C1768.92 910.716 1765.11 920.244 1760.88 929.694C1736.95 983.153 1696.97 1028.64 1651.42 1064.88C1526.42 1164.31 1426.21 1156.56 1282.36 1111.62C1272.3 1108.48 1252.86 1100.07 1242.81 1104.45C1238.32 1106.4 1234.44 1111.24 1233.01 1115.85C1231.96 1119.21 1232.34 1122.48 1234.06 1125.54C1241.43 1138.65 1277.99 1144.33 1292.57 1149.02C1389.53 1180.24 1466.91 1238.8 1514.38 1329.89C1548.36 1395.11 1556.08 1464.93 1550.79 1537.32C1549.73 1551.88 1549.7 1569.84 1545.01 1583.68C1544.35 1585.63 1543.21 1588.56 1541.23 1589.51C1531.81 1594.01 1465.57 1578.41 1451.93 1574.73C1439.88 1571.48 1427.56 1566.31 1415.3 1564.32C1410.75 1563.58 1403.85 1562.84 1399.69 1565.37C1395.04 1568.2 1393.03 1576.09 1392.21 1581.04C1390.48 1591.48 1391.6 1603.23 1391.45 1613.87C1391.22 1630.91 1389.35 1690.22 1384.5 1703.39C1383.87 1705.11 1382.59 1707.49 1380.8 1708.15C1374.58 1710.44 1362.79 1707.89 1356.06 1707.13C1304.54 1701.71 1254.55 1686.36 1208.87 1661.93C1141.92 1626.31 1083.74 1569.73 1049.9 1501.35C1041.05 1483.47 1035.95 1467.3 1030.17 1448.46C1020.29 1410.73 1016.64 1377.89 1016.34 1338.68C1016.16 1321.23 1017.23 1303.67 1016.53 1286.24C1016.13 1276.21 1009.56 1270.18 999.598 1270.31C987.719 1270.47 983.313 1279.57 983.082 1290.29C982.867 1300.24 983.513 1310.21 983.497 1320.15C983.347 1338.75 982.486 1357.33 980.917 1375.87C973.498 1458.06 947.589 1522.77 891.271 1584.69C822.486 1660.31 725.96 1702.25 624.449 1709.09C620.587 1709.35 616.848 1709.32 613.921 1706.6C605.16 1690.21 606.548 1604.87 605.932 1583.65C605.608 1572.49 601.416 1560.19 587.011 1564.23C542.794 1576.64 500.085 1588.63 453.894 1590.97C448.408 1571.17 447.714 1553.98 446.027 1533.91C440.049 1462.78 450.103 1394.16 482.168 1329.7C523.023 1246.77 596.639 1190.15 682.196 1158.45C704.866 1150.05 727.469 1142.86 750.849 1136.61C761.891 1133.66 770.141 1124.96 765.252 1113.15C764.219 1110.69 762.536 1108.56 760.386 1106.99C754.562 1102.73 748.378 1102.44 741.605 1104.46C718.206 1111.43 694.245 1118.82 670.855 1125.78C607.696 1144.57 516.051 1151.47 453.485 1126.83C379.344 1097.62 302.048 1029.89 259.579 962.38C248.198 944.289 238.081 920.751 229.24 900.937C249.595 881.465 297.696 870.175 324.777 860.678C339.697 855.446 376.481 854.647 363.806 829.155C358.429 818.34 348.214 808.035 341.672 797.671C323.578 769.008 307.944 740.508 296.523 708.559C306.408 698.547 322.548 690.197 335.082 684.151C399.424 653.116 470.117 644.901 540.783 651.161C575.39 654.227 610.311 660.321 642.736 673.52C675.14 686.7 704.002 706.973 729.625 730.394C764.467 762.243 791.843 799.137 820.613 836.135C827.579 845.092 839.596 849.958 850.01 843.67C856.919 839.498 857.729 830.312 854.388 823.354C848.5 812.171 839.043 803.137 831.653 792.953C768.158 711.804 739.91 618.548 761.82 515.787C779.954 430.738 826.608 341.413 901.046 291.742Z"/><path fill="#FE6541" d="M931.231 1069.28C952.885 1064.47 974.345 1078.1 979.193 1099.75C984.041 1121.39 970.447 1142.88 948.81 1147.76C927.119 1152.66 905.569 1139.03 900.709 1117.33C895.849 1095.63 909.523 1074.1 931.231 1069.28Z"/><path fill="#FE6541" d="M1049.55 1069.54C1071.07 1064.42 1092.66 1077.75 1097.72 1099.29C1102.79 1120.82 1089.41 1142.38 1067.86 1147.39C1046.38 1152.39 1024.92 1139.06 1019.87 1117.6C1014.82 1096.14 1028.1 1074.64 1049.55 1069.54Z"/><path fill="#FE6541" d="M991.298 863.117C1012.64 857.52 1034.48 870.307 1040.05 891.662C1045.61 913.017 1032.79 934.836 1011.43 940.368C990.11 945.889 968.349 933.102 962.796 911.793C957.243 890.483 969.997 868.702 991.298 863.117Z"/><path fill="#FE6541" d="M890.103 949.807C904.214 947.889 918.269 953.7 926.904 965.025C935.538 976.35 937.422 991.442 931.836 1004.54C926.25 1017.64 914.056 1026.73 899.905 1028.34C878.358 1030.79 858.852 1015.44 856.166 993.921C853.48 972.402 868.614 952.729 890.103 949.807Z"/><path fill="#FE6541" d="M1095.86 950.555C1117.42 946.511 1138.15 960.806 1142.04 982.399C1145.92 1003.99 1131.48 1024.62 1109.86 1028.34C1088.46 1032.03 1068.09 1017.77 1064.25 996.395C1060.4 975.026 1074.52 954.556 1095.86 950.555Z"/></svg>