<svg xmlns="http://www.w3.org/2000/svg" xmlns:xlink="http://www.w3.org/1999/xlink" width="2000" zoomAndPan="magnify" viewBox="0 0 1500 1499.999933" height="2000" preserveAspectRatio="xMidYMid meet" version="1.0"><rect x="-150" width="1800" fill="#ffffff" y="-149.999993" height="1799.99992" fill-opacity="1"/><rect x="-150" width="1800" fill="#fe6541" y="-149.999993" height="1799.99992" fill-opacity="1"/><path fill="#fe6541" d="M 749.816406 229.664062 C 759.703125 214.804688 779.902344 191.753906 794.0625 181.121094 C 805.222656 172.734375 819.621094 169.210938 833.308594 171.589844 C 864.839844 177.0625 906.089844 224.59375 923.558594 249.441406 C 959.46875 300.503906 981.328125 369.367188 982.828125 431.65625 C 983.128906 444.0625 984.226562 457.785156 982.164062 470 C 1016.851562 446.609375 1077.367188 439.523438 1118.160156 439.179688 C 1165.792969 438.773438 1207.753906 445.785156 1252.183594 463.148438 C 1278.78125 473.539062 1319.273438 486.179688 1325.765625 518.566406 C 1330.808594 543.671875 1307.476562 587.800781 1294.085938 608.519531 C 1323.78125 617.722656 1373.363281 635.523438 1376.746094 670.964844 C 1379.949219 704.554688 1345.695312 754.769531 1326.039062 780.359375 C 1281.78125 837.960938 1200.5625 892.449219 1128.148438 901.328125 C 1137.140625 910.925781 1145.015625 919.003906 1152.898438 929.828125 C 1167.292969 949.582031 1176.472656 967.867188 1186.042969 990.171875 C 1213.710938 1054.6875 1217.152344 1119.03125 1207.679688 1187.894531 C 1205.28125 1205.390625 1198.261719 1220.789062 1183.6875 1231.453125 C 1165.84375 1244.511719 1144.851562 1240.558594 1124.476562 1237.132812 L 1091.675781 1231.5 C 1088.378906 1256.667969 1091.40625 1292.355469 1074.335938 1312.476562 C 1055.414062 1334.78125 1022.941406 1329.628906 997.207031 1325.925781 C 930.03125 1316.011719 867.089844 1287.050781 815.859375 1242.488281 C 782.429688 1210.679688 772.363281 1198.238281 749.816406 1159.28125 C 738.328125 1180.246094 724.527344 1199.855469 708.679688 1217.753906 C 652.25 1281.914062 561.984375 1323.488281 476.9375 1328.8125 C 457.285156 1330.074219 442.09375 1329.226562 426.96875 1315.46875 C 412.195312 1302.039062 410.496094 1288.949219 409.191406 1269.878906 C 408.328125 1257.285156 407.800781 1244.535156 407.039062 1231.941406 C 386.878906 1236.703125 366.3125 1239.335938 345.648438 1240.238281 C 315.441406 1241.550781 294.585938 1218.269531 290.4375 1189.640625 C 282.960938 1138.035156 282.40625 1083.449219 296.449219 1032.816406 C 309.75 985.027344 334.945312 936.425781 370.050781 901.253906 C 343.542969 897.585938 309.414062 884.339844 285.988281 871.964844 C 231.296875 842.863281 188.992188 802.175781 155.320312 750.667969 C 104.085938 672.285156 112.324219 634.773438 205.402344 607.617188 C 174.804688 555.019531 148.96875 508.9375 219.21875 474.523438 C 312.027344 429.058594 423.21875 426.402344 518.671875 468.847656 C 517.039062 460.5 517.789062 439.21875 518.160156 430.457031 C 520.308594 368.0625 539.324219 307.414062 573.191406 254.960938 C 591.769531 226.144531 631.628906 178.90625 665.792969 171.539062 C 688.207031 168.15625 702.453125 176.148438 717.644531 191.503906 C 729.363281 203.34375 739.519531 216.625 749.816406 229.664062 Z M 749.816406 229.664062 " fill-opacity="1" fill-rule="nonzero"/><path fill="#6a110a" d="M 671.703125 189.136719 C 673.789062 188.933594 675.890625 188.894531 677.980469 189.019531 C 701.234375 190.300781 733.550781 240.222656 750.089844 258.875 C 767.199219 239.882812 799.800781 184.285156 828.644531 189.40625 C 854.722656 194.035156 893.128906 237.949219 908.296875 259.722656 C 948.839844 317.949219 967.679688 391.6875 964.410156 462.277344 C 963.816406 474.851562 961.191406 490.769531 959.085938 503.261719 C 973.476562 496.019531 989.765625 485.15625 1004.128906 479.257812 C 1086.789062 445.316406 1172.765625 452.042969 1254.832031 483.839844 C 1327.492188 511.996094 1314.515625 529.410156 1282.425781 591.765625 C 1278.269531 599.855469 1271.4375 609.171875 1268.152344 617.25 L 1267.769531 618.207031 C 1277.226562 622.109375 1286.460938 624.972656 1296.1875 628.601562 C 1315.566406 635.828125 1351.449219 647.550781 1357.574219 669.632812 C 1361.398438 683.40625 1352.992188 700.332031 1347.136719 712.175781 C 1332.097656 742.597656 1311.796875 770.902344 1288.5 795.53125 C 1244.09375 838.84375 1182.960938 876.511719 1120.515625 883.941406 C 1108.207031 885.40625 1099.550781 884.152344 1086.78125 887.707031 C 1099.371094 902.558594 1116.863281 913.882812 1129.824219 930.195312 C 1182.136719 996.128906 1200.34375 1080.335938 1191.734375 1162.828125 C 1186.515625 1212.871094 1179.824219 1229.226562 1125.796875 1218.765625 C 1111.648438 1216.027344 1089.40625 1211.113281 1075.550781 1209.503906 L 1074.511719 1209.390625 C 1071.621094 1231.011719 1073.671875 1287.488281 1058.78125 1301.789062 C 1051.261719 1309.011719 1041.523438 1311.148438 1031.421875 1311.039062 C 1020.703125 1310.917969 1009.972656 1309.117188 999.375 1307.609375 C 927.324219 1297.117188 860.746094 1263.140625 809.96875 1210.964844 C 780.800781 1181.378906 767.617188 1154.265625 749.769531 1117.792969 C 745.179688 1123.925781 737.925781 1142.460938 733.628906 1150.34375 C 722.601562 1170.5625 707.207031 1192.46875 691.546875 1209.269531 C 640.449219 1263.808594 568.605469 1299.171875 494.609375 1308.390625 C 475.484375 1310.445312 453.886719 1316.152344 438.382812 1300.964844 C 423.84375 1286.722656 428.457031 1259.664062 426.105469 1240.730469 C 424.949219 1231.425781 424.214844 1219.90625 423.933594 1210.566406 C 414.4375 1210.949219 403.46875 1214.378906 394.265625 1215.839844 C 349.714844 1222.914062 313.066406 1235.59375 307.140625 1175.84375 C 304.332031 1147.523438 302.449219 1123.394531 304.515625 1094.96875 C 308.988281 1031.773438 333.574219 971.664062 374.671875 923.445312 C 384.664062 911.925781 400.074219 897.59375 411.828125 887.445312 C 400.273438 886.28125 382.304688 885.023438 371.351562 882.96875 C 317.035156 872.761719 267.496094 844.761719 226.945312 807.839844 C 214.550781 796.410156 203.011719 784.085938 192.414062 770.976562 C 174.992188 749.3125 144.160156 703.710938 142.226562 675.960938 C 140.160156 646.304688 191.683594 630.734375 213.863281 624.066406 C 218.09375 622.796875 228.789062 619.703125 231.742188 616.632812 C 231.976562 612.300781 222.160156 599.589844 219.5625 595.027344 C 183.980469 532.496094 175.269531 510.429688 249.855469 480.75 C 329.253906 449.152344 413.234375 449.558594 493.734375 478.328125 C 502.867188 481.59375 511.480469 485.605469 519.941406 490.320312 C 527.300781 494.355469 534.800781 500.164062 542.617188 503.066406 C 541.785156 499.429688 541.007812 495.78125 540.292969 492.125 C 526.039062 416.816406 548.152344 323.660156 591.660156 260.75 C 607.890625 237.28125 643.128906 194.46875 671.703125 189.136719 Z M 671.703125 189.136719 " fill-opacity="1" fill-rule="nonzero"/><path fill="#fec9ca" d="M 675.785156 218.804688 C 684.917969 222.390625 717.480469 268.144531 726.105469 278.390625 C 732.078125 285.488281 742.90625 312.4375 758.152344 298.167969 C 764.773438 291.972656 772.035156 278.945312 778.011719 271.359375 C 792.847656 252.542969 807.554688 234.613281 825.285156 218.433594 C 839.414062 226.339844 854.113281 244.417969 864.90625 256.789062 C 901.703125 298.964844 925.386719 350.386719 932.992188 405.960938 C 940.890625 461.058594 928.566406 517.15625 898.304688 563.875 C 888.75 578.859375 875.78125 596.363281 864.292969 610.003906 C 848.671875 628.554688 866.664062 642.117188 880.140625 630.066406 C 887.113281 623.835938 897.351562 608.878906 903.878906 600.808594 C 917.835938 583.261719 933.171875 566.851562 949.726562 551.730469 C 978.660156 525.707031 1014.203125 503.371094 1052.308594 494.542969 C 1125.433594 477.605469 1214.851562 490.195312 1279.011719 529.210938 C 1273.171875 551.503906 1258.546875 575.277344 1246.582031 594.878906 C 1240.769531 604.402344 1224.203125 620.046875 1227.097656 631.253906 C 1227.953125 634.425781 1230.074219 637.097656 1232.96875 638.644531 C 1235.363281 639.9375 1252.628906 644.050781 1257.171875 645.703125 C 1279.558594 653.855469 1308.234375 663.023438 1328.476562 675.464844 C 1326.691406 683.035156 1323.832031 690.183594 1320.660156 697.269531 C 1302.710938 737.363281 1272.726562 771.480469 1238.566406 798.660156 C 1144.816406 873.234375 1069.65625 867.421875 961.769531 833.714844 C 954.226562 831.359375 939.644531 825.050781 932.109375 828.335938 C 928.738281 829.800781 925.828125 833.429688 924.757812 836.886719 C 923.96875 839.40625 924.253906 841.859375 925.546875 844.15625 C 931.074219 853.988281 958.492188 858.246094 969.425781 861.765625 C 1042.148438 885.179688 1100.183594 929.101562 1135.785156 997.417969 C 1161.269531 1046.332031 1167.058594 1098.699219 1163.09375 1152.988281 C 1162.296875 1163.910156 1162.273438 1177.378906 1158.757812 1187.761719 C 1158.261719 1189.222656 1157.40625 1191.421875 1155.921875 1192.132812 C 1148.859375 1195.507812 1099.175781 1183.808594 1088.949219 1181.046875 C 1079.910156 1178.609375 1070.671875 1174.734375 1061.476562 1173.238281 C 1058.0625 1172.683594 1052.886719 1172.128906 1049.765625 1174.027344 C 1046.28125 1176.148438 1044.773438 1182.066406 1044.15625 1185.78125 C 1042.859375 1193.609375 1043.699219 1202.421875 1043.585938 1210.402344 C 1043.414062 1223.183594 1042.011719 1267.664062 1038.375 1277.542969 C 1037.902344 1278.832031 1036.941406 1280.617188 1035.601562 1281.113281 C 1030.933594 1282.828125 1022.09375 1280.917969 1017.046875 1280.347656 C 978.40625 1276.28125 940.914062 1264.769531 906.652344 1246.449219 C 856.441406 1219.730469 812.804688 1177.296875 787.425781 1126.011719 C 780.789062 1112.601562 776.960938 1100.476562 772.628906 1086.34375 C 765.21875 1058.046875 762.480469 1033.417969 762.253906 1004.011719 C 762.121094 990.921875 762.921875 977.753906 762.398438 964.679688 C 762.097656 957.15625 757.171875 952.636719 749.699219 952.734375 C 740.789062 952.851562 737.484375 959.675781 737.3125 967.71875 C 737.148438 975.179688 737.632812 982.65625 737.621094 990.113281 C 737.511719 1004.0625 736.863281 1017.996094 735.6875 1031.902344 C 730.125 1093.546875 710.691406 1142.078125 668.453125 1188.515625 C 616.863281 1245.230469 544.46875 1276.6875 468.335938 1281.816406 C 465.441406 1282.011719 462.636719 1281.988281 460.441406 1279.949219 C 453.871094 1267.65625 454.910156 1203.652344 454.449219 1187.738281 C 454.207031 1179.367188 451.0625 1170.140625 440.257812 1173.171875 C 407.09375 1182.480469 375.0625 1191.472656 340.421875 1193.226562 C 336.304688 1178.378906 335.785156 1165.484375 334.519531 1150.433594 C 330.035156 1097.085938 337.578125 1045.621094 361.625 997.273438 C 392.265625 935.078125 447.480469 892.613281 511.648438 868.835938 C 528.648438 862.539062 545.601562 857.144531 563.136719 852.457031 C 571.417969 850.246094 577.605469 843.71875 573.9375 834.863281 C 573.164062 833.015625 571.902344 831.421875 570.289062 830.242188 C 565.921875 827.046875 561.285156 826.828125 556.203125 828.34375 C 538.65625 833.574219 520.683594 839.113281 503.140625 844.335938 C 455.773438 858.425781 387.039062 863.601562 340.113281 845.121094 C 284.507812 823.214844 226.535156 772.417969 194.683594 721.785156 C 186.148438 708.214844 178.5625 690.5625 171.929688 675.703125 C 187.195312 661.097656 223.273438 652.632812 243.582031 645.507812 C 254.773438 641.585938 282.359375 640.984375 272.855469 621.867188 C 268.820312 613.753906 261.160156 606.027344 256.253906 598.253906 C 242.683594 576.757812 230.957031 555.382812 222.390625 531.417969 C 229.804688 523.910156 241.910156 517.648438 251.3125 513.113281 C 299.566406 489.835938 352.585938 483.675781 405.585938 488.371094 C 431.542969 490.671875 457.734375 495.242188 482.050781 505.140625 C 506.355469 515.023438 528 530.230469 547.21875 547.796875 C 573.351562 571.683594 593.882812 599.351562 615.460938 627.101562 C 620.683594 633.820312 629.695312 637.46875 637.507812 632.753906 C 642.6875 629.625 643.296875 622.734375 640.789062 617.515625 C 636.375 609.128906 629.28125 602.351562 623.738281 594.714844 C 576.117188 533.851562 554.933594 463.910156 571.363281 386.839844 C 584.964844 323.054688 619.957031 256.058594 675.785156 218.804688 Z M 675.785156 218.804688 " fill-opacity="1" fill-rule="nonzero"/><path fill="#fe6541" d="M 698.421875 801.960938 C 714.664062 798.351562 730.757812 808.574219 734.394531 824.8125 C 738.03125 841.042969 727.835938 857.160156 711.609375 860.820312 C 695.339844 864.496094 679.175781 854.273438 675.53125 837.996094 C 671.886719 821.722656 682.140625 805.574219 698.421875 801.960938 Z M 698.421875 801.960938 " fill-opacity="1" fill-rule="nonzero"/><path fill="#fe6541" d="M 787.164062 802.15625 C 803.300781 798.316406 819.496094 808.3125 823.289062 824.46875 C 827.09375 840.613281 817.058594 856.785156 800.894531 860.542969 C 784.785156 864.292969 768.691406 854.296875 764.902344 838.199219 C 761.113281 822.105469 771.074219 805.980469 787.164062 802.15625 Z M 787.164062 802.15625 " fill-opacity="1" fill-rule="nonzero"/><path fill="#fe6541" d="M 743.472656 647.335938 C 759.480469 643.140625 775.859375 652.730469 780.039062 668.746094 C 784.207031 684.761719 774.59375 701.125 758.574219 705.277344 C 742.582031 709.417969 726.261719 699.828125 722.097656 683.84375 C 717.933594 667.863281 727.496094 651.527344 743.472656 647.335938 Z M 743.472656 647.335938 " fill-opacity="1" fill-rule="nonzero"/><path fill="#fe6541" d="M 667.578125 712.355469 C 678.160156 710.917969 688.703125 715.273438 695.179688 723.769531 C 701.652344 732.261719 703.066406 743.582031 698.878906 753.40625 C 694.6875 763.230469 685.542969 770.046875 674.929688 771.253906 C 658.769531 773.09375 644.140625 761.578125 642.125 745.441406 C 640.109375 729.300781 651.460938 714.546875 667.578125 712.355469 Z M 667.578125 712.355469 " fill-opacity="1" fill-rule="nonzero"/><path fill="#fe6541" d="M 821.894531 712.917969 C 838.066406 709.882812 853.613281 720.605469 856.53125 736.800781 C 859.441406 752.992188 848.609375 768.464844 832.394531 771.253906 C 816.34375 774.023438 801.066406 763.328125 798.1875 747.296875 C 795.300781 731.269531 805.890625 715.917969 821.894531 712.917969 Z M 821.894531 712.917969 " fill-opacity="1" fill-rule="nonzero"/></svg>